<?xml version="1.0" encoding="UTF-8" standalone="no"?>
<!-- Created with Inkscape (http://www.inkscape.org/) -->

<svg
   xmlns:dc="http://purl.org/dc/elements/1.1/"
   xmlns:cc="http://creativecommons.org/ns#"
   xmlns:rdf="http://www.w3.org/1999/02/22-rdf-syntax-ns#"
   xmlns:svg="http://www.w3.org/2000/svg"
   xmlns="http://www.w3.org/2000/svg"
   xmlns:sodipodi="http://sodipodi.sourceforge.net/DTD/sodipodi-0.dtd"
   xmlns:inkscape="http://www.inkscape.org/namespaces/inkscape"
   width="744.09448819"
   height="1052.3622047"
   id="svg2"
   version="1.1"
   inkscape:version="0.48.4 r9939"
   sodipodi:docname="newLogos.svg">
  <defs
     id="defs4" />
  <sodipodi:namedview
     id="base"
     pagecolor="#ffffff"
     bordercolor="#666666"
     borderopacity="1.0"
     inkscape:pageopacity="0.0"
     inkscape:pageshadow="2"
     inkscape:zoom="0.70710678"
     inkscape:cx="434.18031"
     inkscape:cy="612.37028"
     inkscape:document-units="px"
     inkscape:current-layer="layer1"
     showgrid="false"
     showguides="true"
     inkscape:guide-bbox="true"
     inkscape:window-width="1366"
     inkscape:window-height="691"
     inkscape:window-x="0"
     inkscape:window-y="25"
     inkscape:window-maximized="1" />
  <metadata
     id="metadata7">
    <rdf:RDF>
      <cc:Work
         rdf:about="">
        <dc:format>image/svg+xml</dc:format>
        <dc:type
           rdf:resource="http://purl.org/dc/dcmitype/StillImage" />
        <dc:title></dc:title>
      </cc:Work>
    </rdf:RDF>
  </metadata>
  <g
     inkscape:label="Layer 1"
     inkscape:groupmode="layer"
     id="layer1">
    <rect
       style="fill:#0000ff;fill-rule:evenodd;stroke:#000000;stroke-width:1px;stroke-linecap:butt;stroke-linejoin:miter;stroke-opacity:1"
       id="rect3619"
       width="681.65094"
       height="366.28131"
       x="19.79899"
       y="350.91223" />
    <path
       style="fill:#c80000;fill-opacity:1;stroke:none"
       d="m -661.77489,122.24911 0,28.65625 107.0313,100.3125 0.3124,-29.4375 -39.4687,-37.21875 0,-0.21875 -67.875,-62.09375 z m 153,0 -59.5625,54.5 15.3125,14.90625 22.25,-20.59375 0,135.125 22,0 0,-123.90625 0,-42.0625 0,-17.96875 z m -198.0313,18 0.031,166 22,0 0,-116.875 68.9375,65.46875 15.4688,-14.1875 -61.4376,-58.375 0,-0.0625 -45,-41.96875 z m 243,0.0312 -21.9374,20.5 -0.031,145.4375 15,0.0312 6.9687,0 0,-165.96875 z m -198,103.625 0.031,62.34375 21.9063,0 -0.25,-41.15625 -21.6876,-21.1875 z"
       id="rect4081"
       inkscape:connector-curvature="0" />
    <g
       id="g4143"
       transform="translate(-1202.9688,-994.94949)">
      <path
         sodipodi:type="arc"
         style="fill:#000000;fill-rule:evenodd;stroke:#000000;stroke-width:1px;stroke-linecap:butt;stroke-linejoin:miter;stroke-opacity:1"
         id="path4101"
         sodipodi:cx="905.09668"
         sodipodi:cy="819.01697"
         sodipodi:rx="124.45079"
         sodipodi:ry="124.45079"
         d="m 1029.5475,819.01697 c 0,68.73227 -55.71855,124.45079 -124.45082,124.45079 -68.73227,0 -124.45079,-55.71852 -124.45079,-124.45079 0,-68.73228 55.71852,-124.45079 124.45079,-124.45079 68.73227,0 124.45082,55.71851 124.45082,124.45079 z"
         transform="matrix(1.3621813,0,0,1.3621813,-240.39328,463.5538)" />
      <path
         inkscape:connector-curvature="0"
         id="path4103"
         d="m 916.04376,1487.2034 0,28.6562 107.03124,100.3125 0.3124,-29.4375 z m 152.99994,0 -59.5625,54.5 15.3125,14.9062 22.25,-20.5937 0,135.125 22,0 z m -198.03127,18 0.031,166 22,0 0,-116.875 68.93753,65.4687 15.4688,-14.1875 -106.43763,-100.4062 z m 242.99997,0.031 -21.9374,20.5 -0.031,145.4375 21.9687,0.031 0,-165.9688 z m -197.99994,103.625 0.031,62.3437 10.95315,0 c 24.20311,1.2922 15.43557,-35.7483 -0.14065,-51.75 l -10.8438,-10.5937 z"
         style="fill:#ffffff;stroke:#000000;stroke-width:0.1;stroke-linecap:butt;stroke-linejoin:miter;stroke-miterlimit:4;stroke-opacity:1;stroke-dasharray:none"
         sodipodi:nodetypes="cccccccccccccccccccccccccccccccc" />
      <text
         transform="matrix(0.72720268,0.6864228,-0.6864228,0.72720268,0,0)"
         sodipodi:linespacing="125%"
         id="text4105"
         y="494.70538"
         x="1666.7531"
         style="font-size:40px;font-style:normal;font-weight:normal;line-height:125%;letter-spacing:0px;word-spacing:0px;fill:#ffffff;fill-opacity:1;stroke:none;font-family:Sans"
         xml:space="preserve"><tspan
           style="font-size:10px;letter-spacing:16.31999969px"
           y="494.70538"
           x="1666.7531"
           id="tspan4107"
           sodipodi:role="line">MESSAGE</tspan></text>
      <text
         xml:space="preserve"
         style="font-size:40px;font-style:normal;font-weight:normal;line-height:125%;letter-spacing:0px;word-spacing:0px;fill:#ffffff;fill-opacity:1;stroke:none;font-family:Sans"
         x="1685.3151"
         y="464.74365"
         id="text4109"
         sodipodi:linespacing="125%"
         transform="matrix(0.73289924,0.6803372,-0.6803372,0.73289924,0,0)"><tspan
           sodipodi:role="line"
           id="tspan4111"
           x="1685.3151"
           y="464.74365"
           style="font-size:10px;letter-spacing:8px">MANAGEMENT</tspan></text>
      <text
         transform="matrix(0.7396167,-0.67302833,0.67302833,0.7396167,0,0)"
         sodipodi:linespacing="125%"
         id="text4113"
         y="1817.6427"
         x="-263.55231"
         style="font-size:40px;font-style:normal;font-weight:normal;line-height:125%;letter-spacing:0px;word-spacing:0px;fill:#000000;fill-opacity:1;stroke:none;font-family:Sans"
         xml:space="preserve"><tspan
           dx="-27.5"
           dy="0.5"
           style="font-size:10px;letter-spacing:17.79999924px;fill:#ffffff;fill-opacity:1"
           y="1817.6427"
           x="-263.55231"
           id="tspan4115"
           sodipodi:role="line">TOOL</tspan></text>
    </g>
    <g
       id="g4131"
       transform="translate(-1170.9688,-984.94949)">
      <path
         transform="matrix(1.3621813,0,0,1.3621813,-639.39328,453.5538)"
         d="m 1029.5475,819.01697 c 0,68.73227 -55.71855,124.45079 -124.45082,124.45079 -68.73227,0 -124.45079,-55.71852 -124.45079,-124.45079 0,-68.73228 55.71852,-124.45079 124.45079,-124.45079 68.73227,0 124.45082,55.71851 124.45082,124.45079 z"
         sodipodi:ry="124.45079"
         sodipodi:rx="124.45079"
         sodipodi:cy="819.01697"
         sodipodi:cx="905.09668"
         id="path4091"
         style="fill:#000000;fill-rule:evenodd;stroke:#000000;stroke-width:1px;stroke-linecap:butt;stroke-linejoin:miter;stroke-opacity:1"
         sodipodi:type="arc" />
      <path
         style="fill:#ffffff;stroke:#000000;stroke-width:0.1;stroke-linecap:butt;stroke-linejoin:miter;stroke-miterlimit:4;stroke-opacity:1;stroke-dasharray:none"
         d="m 517.04376,1477.2034 0,28.6562 107.03129,100.3125 0.3124,-29.4375 -39.46869,-37.2187 0,-0.2188 -67.875,-62.0937 z m 152.99999,0 -59.5625,54.5 15.3125,14.9062 22.25,-20.5937 0,135.125 22,0 0,-123.9063 0,-42.0625 0,-17.9687 z m -198.03132,18 0.031,166 22,0 0,-116.875 68.93753,65.4687 15.4688,-14.1875 -61.4376,-58.375 0,-0.062 -45.00003,-41.9687 z m 243.00002,0.031 -21.9374,20.5 -0.031,145.4375 15,0.031 6.9687,0 0,-165.9688 z m -197.99999,103.625 0.031,62.3437 21.9063,0 -0.25,-41.1562 -21.6876,-21.1875 z"
         id="path4093"
         inkscape:connector-curvature="0" />
      <text
         xml:space="preserve"
         style="font-size:40px;font-style:normal;font-weight:normal;line-height:125%;letter-spacing:0px;word-spacing:0px;fill:#ffffff;fill-opacity:1;stroke:none;font-family:Sans"
         x="1367.635"
         y="760.54803"
         id="text4117"
         sodipodi:linespacing="125%"
         transform="matrix(0.72720268,0.6864228,-0.6864228,0.72720268,0,0)"><tspan
           sodipodi:role="line"
           id="tspan4119"
           x="1367.635"
           y="760.54803"
           style="font-size:10px;letter-spacing:16.31999969px">MESSAGE</tspan></text>
      <text
         transform="matrix(0.73289924,0.6803372,-0.6803372,0.73289924,0,0)"
         sodipodi:linespacing="125%"
         id="text4121"
         y="728.08368"
         x="1383.9913"
         style="font-size:40px;font-style:normal;font-weight:normal;line-height:125%;letter-spacing:0px;word-spacing:0px;fill:#ffffff;fill-opacity:1;stroke:none;font-family:Sans"
         xml:space="preserve"><tspan
           style="font-size:10px;letter-spacing:8px"
           y="728.08368"
           x="1383.9913"
           id="tspan4123"
           sodipodi:role="line">MANAGEMENT</tspan></text>
      <text
         xml:space="preserve"
         style="font-size:40px;font-style:normal;font-weight:normal;line-height:125%;letter-spacing:0px;word-spacing:0px;fill:#000000;fill-opacity:1;stroke:none;font-family:Sans"
         x="-551.32251"
         y="1539.5558"
         id="text4125"
         sodipodi:linespacing="125%"
         transform="matrix(0.7396167,-0.67302833,0.67302833,0.7396167,0,0)"><tspan
           sodipodi:role="line"
           id="tspan4127"
           x="-551.32251"
           y="1539.5558"
           style="font-size:10px;letter-spacing:17.79999924px;fill:#ffffff;fill-opacity:1"
           dy="0.5"
           dx="-27.5">TOOL</tspan></text>
    </g>
    <g
       id="g4505"
       transform="translate(-1170.9688,-989.94949)">
      <path
         transform="matrix(1.3621813,0,0,1.3621813,-272.39328,818.5538)"
         d="m 1029.5475,819.01697 c 0,68.73227 -55.71855,124.45079 -124.45082,124.45079 -68.73227,0 -124.45079,-55.71852 -124.45079,-124.45079 0,-68.73228 55.71852,-124.45079 124.45079,-124.45079 68.73227,0 124.45082,55.71851 124.45082,124.45079 z"
         sodipodi:ry="124.45079"
         sodipodi:rx="124.45079"
         sodipodi:cy="819.01697"
         sodipodi:cx="905.09668"
         id="path4155"
         style="fill:#000000;fill-rule:evenodd;stroke:#000000;stroke-width:1px;stroke-linecap:butt;stroke-linejoin:miter;stroke-opacity:1"
         sodipodi:type="arc" />
      <path
         sodipodi:nodetypes="cccccccccccccccccccccccccccccccc"
         style="fill:#ffffff;stroke:#000000;stroke-width:0.1;stroke-linecap:butt;stroke-linejoin:miter;stroke-miterlimit:4;stroke-opacity:1;stroke-dasharray:none"
         d="m 884.04376,1842.2034 0,28.6562 107.03124,100.3125 0.3124,-29.4375 z m 152.99994,0 -59.5625,54.5 15.3125,14.9062 22.25,-20.5937 0,135.125 22,0 z m -198.03127,18 0.031,166 22,0 0,-116.875 68.93753,65.4687 15.4688,-14.1875 -106.43763,-100.4062 z m 242.99997,0.031 -21.9374,20.5 -0.031,145.4375 21.9687,0.031 0,-165.9688 z m -197.99994,103.625 0.031,62.3437 10.95315,0 c 24.20311,1.2922 15.43557,-35.7483 -0.14065,-51.75 l -10.8438,-10.5937 z"
         id="path4157"
         inkscape:connector-curvature="0" />
      <text
         xml:space="preserve"
         style="font-size:40px;font-style:normal;font-weight:normal;line-height:125%;letter-spacing:0px;word-spacing:0px;fill:#ffffff;fill-opacity:1;stroke:none;font-family:Sans"
         x="1887.1626"
         y="774.82788"
         id="text4159"
         sodipodi:linespacing="125%"
         transform="matrix(0.72720268,0.6864228,-0.6864228,0.72720268,0,0)"><tspan
           dx="17.677677"
           dy="18.031231"
           sodipodi:role="line"
           id="tspan4161"
           x="1887.1626"
           y="774.82788"
           style="font-size:16px;font-weight:bold;letter-spacing:6.19999981px;fill:#000000;fill-opacity:1;-inkscape-font-specification:Sans Bold">MESSAGE</tspan></text>
      <text
         transform="matrix(0.73289924,0.6803372,-0.6803372,0.73289924,0,0)"
         sodipodi:linespacing="125%"
         id="text4163"
         y="766.84186"
         x="1907.7922"
         style="font-size:40px;font-style:normal;font-weight:normal;line-height:125%;letter-spacing:0px;word-spacing:0px;fill:#000000;fill-opacity:1;stroke:none;font-family:Sans"
         xml:space="preserve"><tspan
           dy="-1.7677668"
           dx="11.667264"
           style="font-size:16px;font-weight:bold;letter-spacing:0px;fill:#000000;fill-opacity:1;-inkscape-font-specification:Sans Bold"
           y="766.84186"
           x="1907.7922"
           id="tspan4165"
           sodipodi:role="line">MANAGEMENT</tspan></text>
      <text
         xml:space="preserve"
         style="font-size:40px;font-style:normal;font-weight:normal;line-height:125%;letter-spacing:0px;word-spacing:0px;fill:#000000;fill-opacity:1;stroke:none;font-family:Sans"
         x="-526.14508"
         y="2058.6697"
         id="text4167"
         sodipodi:linespacing="125%"
         transform="matrix(0.7396167,-0.67302833,0.67302833,0.7396167,0,0)"><tspan
           sodipodi:role="line"
           id="tspan4169"
           x="-526.14508"
           y="2058.6697"
           style="font-size:16px;font-weight:bold;letter-spacing:3.3900001px;fill:#000000;fill-opacity:1;-inkscape-font-specification:Sans Bold"
           dy="18.531231"
           dx="-23.610909">TOOL</tspan></text>
    </g>
    <g
       id="g4523"
       transform="translate(-1170.9688,-989.94949)">
      <path
         sodipodi:type="arc"
         style="fill:#000000;fill-rule:evenodd;stroke:#000000;stroke-width:1px;stroke-linecap:butt;stroke-linejoin:miter;stroke-opacity:1"
         id="path4191"
         sodipodi:cx="905.09668"
         sodipodi:cy="819.01697"
         sodipodi:rx="124.45079"
         sodipodi:ry="124.45079"
         d="m 1029.5475,819.01697 c 0,68.73227 -55.71855,124.45079 -124.45082,124.45079 -68.73227,0 -124.45079,-55.71852 -124.45079,-124.45079 0,-68.73228 55.71852,-124.45079 124.45079,-124.45079 68.73227,0 124.45082,55.71851 124.45082,124.45079 z"
         transform="matrix(1.3621813,0,0,1.3621813,-272.39328,1178.5538)" />
      <path
         inkscape:connector-curvature="0"
         id="path4193"
         d="m 884.0438,2202.2034 0,28.6562 107.0312,100.3125 0.3124,-29.4375 z m 152.9999,0 -59.5625,54.5 15.3125,14.9062 22.25,-20.5937 0,135.125 22,0 z m -198.0313,18 0.031,166 22,0 0,-116.875 68.9376,65.4687 15.4688,-14.1875 -106.4377,-100.4062 z m 243,0.031 -21.9374,20.5 -0.031,145.4375 21.9687,0.031 0,-165.9688 z m -197.9999,103.625 0.031,62.3437 10.9531,0 c 24.2031,1.2922 15.4356,-35.7483 -0.1406,-51.75 l -10.8438,-10.5937 z"
         style="fill:#ffffff;stroke:#000000;stroke-width:0.1;stroke-linecap:butt;stroke-linejoin:miter;stroke-miterlimit:4;stroke-opacity:1;stroke-dasharray:none"
         sodipodi:nodetypes="cccccccccccccccccccccccccccccccc" />
      <text
         transform="matrix(0.72720268,0.6864228,-0.6864228,0.72720268,0,0)"
         sodipodi:linespacing="125%"
         id="text4195"
         y="1048.181"
         x="2167.1951"
         style="font-size:40px;font-style:normal;font-weight:normal;line-height:125%;letter-spacing:0px;word-spacing:0px;fill:#a2c0ff;fill-opacity:0.51546397;stroke:#000000;stroke-width:1;stroke-opacity:1;font-family:Sans"
         xml:space="preserve"><tspan
           style="font-size:32px;font-weight:bold;letter-spacing:6.19999981px;fill:#a2c0ff;fill-opacity:0.51546397;stroke:#000000;stroke-width:1;stroke-opacity:1;-inkscape-font-specification:Sans Bold"
           y="1048.181"
           x="2167.1951"
           id="tspan4197"
           sodipodi:role="line"
           dy="0"
           dx="0">MESSAGE</tspan></text>
      <text
         xml:space="preserve"
         style="font-size:40px;font-style:normal;font-weight:normal;line-height:125%;letter-spacing:0px;word-spacing:0px;fill:#a2c0ff;fill-opacity:0.51546397;stroke:#000000;stroke-width:1;stroke-opacity:1;font-family:Sans"
         x="2161.561"
         y="1021.1083"
         id="text4199"
         sodipodi:linespacing="125%"
         transform="matrix(0.73289924,0.6803372,-0.6803372,0.73289924,0,0)"><tspan
           sodipodi:role="line"
           id="tspan4201"
           x="2161.561"
           y="1021.1083"
           style="font-size:36px;font-weight:bold;letter-spacing:0px;fill:#a2c0ff;fill-opacity:0.51546397;stroke:#000000;stroke-width:1;stroke-opacity:1;-inkscape-font-specification:Sans Bold"
           dx="0"
           dy="0">MANAGER</tspan></text>
    </g>
    <g
       id="g4333"
       transform="translate(-805.99999,-2440)">
      <path
         sodipodi:type="arc"
         style="fill:#000000;fill-rule:evenodd;stroke:#000000;stroke-width:1px;stroke-linecap:butt;stroke-linejoin:miter;stroke-opacity:1"
         id="path4265"
         sodipodi:cx="905.09668"
         sodipodi:cy="819.01697"
         sodipodi:rx="124.45079"
         sodipodi:ry="124.45079"
         d="m 1029.5475,819.01697 c 0,68.73227 -55.71855,124.45079 -124.45082,124.45079 -68.73227,0 -124.45079,-55.71852 -124.45079,-124.45079 0,-68.73228 55.71852,-124.45079 124.45079,-124.45079 68.73227,0 124.45082,55.71851 124.45082,124.45079 z"
         transform="matrix(1.3621813,0,0,1.3621813,-639.39328,1538.5538)" />
      <path
         inkscape:connector-curvature="0"
         id="path4267"
         d="m 517.04376,2562.2034 0,28.6562 107.03129,100.3125 0.3124,-29.4375 -39.46869,-37.2187 0,-0.2188 -67.875,-62.0937 z m 152.99999,0 -59.5625,54.5 15.3125,14.9062 22.25,-20.5937 0,135.125 22,0 0,-123.9063 0,-42.0625 0,-17.9687 z m -198.03132,18 0.031,166 22,0 0,-116.875 68.93753,65.4687 15.4688,-14.1875 -61.4376,-58.375 0,-0.062 -45.00003,-41.9687 z m 243.00002,0.031 -21.9374,20.5 -0.031,145.4375 15,0.031 6.9687,0 0,-165.9688 z m -197.99999,103.625 0.031,62.3437 21.9063,0 -0.25,-41.1562 -21.6876,-21.1875 z"
         style="fill:#ffffff;stroke:#000000;stroke-width:0.1;stroke-linecap:butt;stroke-linejoin:miter;stroke-miterlimit:4;stroke-opacity:1;stroke-dasharray:none" />
    </g>
    <g
       id="g4495"
       transform="translate(-1170.9688,-989.94949)">
      <path
         sodipodi:type="arc"
         style="fill:#000000;fill-rule:evenodd;stroke:#000000;stroke-width:1px;stroke-linecap:butt;stroke-linejoin:miter;stroke-opacity:1"
         id="path4229"
         sodipodi:cx="905.09668"
         sodipodi:cy="819.01697"
         sodipodi:rx="124.45079"
         sodipodi:ry="124.45079"
         d="m 1029.5475,819.01697 c 0,68.73227 -55.71855,124.45079 -124.45082,124.45079 -68.73227,0 -124.45079,-55.71852 -124.45079,-124.45079 0,-68.73228 55.71852,-124.45079 124.45079,-124.45079 68.73227,0 124.45082,55.71851 124.45082,124.45079 z"
         transform="matrix(1.3621813,0,0,1.3621813,-639.39328,818.5538)" />
      <path
         inkscape:connector-curvature="0"
         id="path4231"
         d="m 517.04376,1842.2034 0,28.6562 107.03129,100.3125 0.3124,-29.4375 -39.46869,-37.2187 0,-0.2188 -67.875,-62.0937 z m 152.99999,0 -59.5625,54.5 15.3125,14.9062 22.25,-20.5937 0,135.125 22,0 0,-123.9063 0,-42.0625 0,-17.9687 z m -198.03132,18 0.031,166 22,0 0,-116.875 68.93753,65.4687 15.4688,-14.1875 -61.4376,-58.375 0,-0.062 -45.00003,-41.9687 z m 243.00002,0.031 -21.9374,20.5 -0.031,145.4375 15,0.031 6.9687,0 0,-165.9688 z m -197.99999,103.625 0.031,62.3437 21.9063,0 -0.25,-41.1562 -21.6876,-21.1875 z"
         style="fill:#ffffff;stroke:#000000;stroke-width:0.1;stroke-linecap:butt;stroke-linejoin:miter;stroke-miterlimit:4;stroke-opacity:1;stroke-dasharray:none" />
      <text
         transform="matrix(0.72720268,0.6864228,-0.6864228,0.72720268,0,0)"
         sodipodi:linespacing="125%"
         id="text4313"
         y="1027.4318"
         x="1619.5515"
         style="font-size:40px;font-style:normal;font-weight:normal;line-height:125%;letter-spacing:0px;word-spacing:0px;fill:#ffffff;fill-opacity:1;stroke:none;font-family:Sans"
         xml:space="preserve"><tspan
           style="font-size:16px;font-weight:bold;letter-spacing:6.19999981px;fill:#000000;fill-opacity:1;-inkscape-font-specification:Sans Bold"
           y="1027.4318"
           x="1619.5515"
           id="tspan4315"
           sodipodi:role="line"
           dy="18.031231"
           dx="17.677677">MESSAGE</tspan></text>
      <text
         xml:space="preserve"
         style="font-size:40px;font-style:normal;font-weight:normal;line-height:125%;letter-spacing:0px;word-spacing:0px;fill:#000000;fill-opacity:1;stroke:none;font-family:Sans"
         x="1638.0858"
         y="1017.2061"
         id="text4317"
         sodipodi:linespacing="125%"
         transform="matrix(0.73289924,0.6803372,-0.6803372,0.73289924,0,0)"><tspan
           sodipodi:role="line"
           id="tspan4319"
           x="1638.0858"
           y="1017.2061"
           style="font-size:16px;font-weight:bold;letter-spacing:0px;fill:#000000;fill-opacity:1;-inkscape-font-specification:Sans Bold"
           dx="11.667264"
           dy="-1.7677668">MANAGEMENT</tspan></text>
      <text
         transform="matrix(0.7396167,-0.67302833,0.67302833,0.7396167,0,0)"
         sodipodi:linespacing="125%"
         id="text4321"
         y="1810.9952"
         x="-798.32422"
         style="font-size:40px;font-style:normal;font-weight:normal;line-height:125%;letter-spacing:0px;word-spacing:0px;fill:#000000;fill-opacity:1;stroke:none;font-family:Sans"
         xml:space="preserve"><tspan
           dx="-23.610909"
           dy="18.531231"
           style="font-size:16px;font-weight:bold;letter-spacing:3.3900001px;fill:#000000;fill-opacity:1;-inkscape-font-specification:Sans Bold"
           y="1810.9952"
           x="-798.32422"
           id="tspan4323"
           sodipodi:role="line">TOOL</tspan></text>
    </g>
    <g
       id="g4515"
       transform="translate(-1170.9688,-989.94949)">
      <path
         transform="matrix(1.3621813,0,0,1.3621813,-639.39328,1178.5538)"
         d="m 1029.5475,819.01697 c 0,68.73227 -55.71855,124.45079 -124.45082,124.45079 -68.73227,0 -124.45079,-55.71852 -124.45079,-124.45079 0,-68.73228 55.71852,-124.45079 124.45079,-124.45079 68.73227,0 124.45082,55.71851 124.45082,124.45079 z"
         sodipodi:ry="124.45079"
         sodipodi:rx="124.45079"
         sodipodi:cy="819.01697"
         sodipodi:cx="905.09668"
         id="path4247"
         style="fill:#000000;fill-rule:evenodd;stroke:#000000;stroke-width:1px;stroke-linecap:butt;stroke-linejoin:miter;stroke-opacity:1"
         sodipodi:type="arc" />
      <path
         style="fill:#ffffff;stroke:#000000;stroke-width:0.1;stroke-linecap:butt;stroke-linejoin:miter;stroke-miterlimit:4;stroke-opacity:1;stroke-dasharray:none"
         d="m 517.04376,2202.2034 0,28.6562 107.03129,100.3125 0.3124,-29.4375 -39.46869,-37.2187 0,-0.2188 -67.875,-62.0937 z m 152.99999,0 -59.5625,54.5 15.3125,14.9062 22.25,-20.5937 0,135.125 22,0 0,-123.9063 0,-42.0625 0,-17.9687 z m -198.03132,18 0.031,166 22,0 0,-116.875 68.93753,65.4687 15.4688,-14.1875 -61.4376,-58.375 0,-0.062 -45.00003,-41.9687 z m 243.00002,0.031 -21.9374,20.5 -0.031,145.4375 15,0.031 6.9687,0 0,-165.9688 z m -197.99999,103.625 0.031,62.3437 21.9063,0 -0.25,-41.1562 -21.6876,-21.1875 z"
         id="path4249"
         inkscape:connector-curvature="0" />
      <text
         xml:space="preserve"
         style="font-size:40px;font-style:normal;font-weight:normal;line-height:125%;letter-spacing:0px;word-spacing:0px;fill:#a2c0ff;fill-opacity:0.51546397;stroke:#000000;stroke-width:1;stroke-opacity:1;font-family:Sans"
         x="1899.5842"
         y="1300.785"
         id="text4325"
         sodipodi:linespacing="125%"
         transform="matrix(0.72720268,0.6864228,-0.6864228,0.72720268,0,0)"><tspan
           dx="0"
           dy="0"
           sodipodi:role="line"
           id="tspan4327"
           x="1899.5842"
           y="1300.785"
           style="font-size:32px;font-weight:bold;letter-spacing:6.19999981px;fill:#a2c0ff;fill-opacity:0.51546397;stroke:#000000;stroke-width:1;stroke-opacity:1;-inkscape-font-specification:Sans Bold">MESSAGE</tspan></text>
      <text
         transform="matrix(0.73289924,0.6803372,-0.6803372,0.73289924,0,0)"
         sodipodi:linespacing="125%"
         id="text4329"
         y="1271.472"
         x="1891.8545"
         style="font-size:40px;font-style:normal;font-weight:normal;line-height:125%;letter-spacing:0px;word-spacing:0px;fill:#a2c0ff;fill-opacity:0.51546397;stroke:#000000;stroke-width:1;stroke-opacity:1;font-family:Sans"
         xml:space="preserve"><tspan
           dy="0"
           dx="0"
           style="font-size:36px;font-weight:bold;letter-spacing:0px;fill:#a2c0ff;fill-opacity:0.51546397;stroke:#000000;stroke-width:1;stroke-opacity:1;-inkscape-font-specification:Sans Bold"
           y="1271.472"
           x="1891.8545"
           id="tspan4331"
           sodipodi:role="line">MANAGER</tspan></text>
    </g>
    <g
       id="g4531"
       transform="translate(-1170.9688,-989.94949)">
      <g
         id="g4343">
        <path
           sodipodi:type="arc"
           style="fill:#000000;fill-rule:evenodd;stroke:#000000;stroke-width:1px;stroke-linecap:butt;stroke-linejoin:miter;stroke-opacity:1"
           id="path4215"
           sodipodi:cx="905.09668"
           sodipodi:cy="819.01697"
           sodipodi:rx="124.45079"
           sodipodi:ry="124.45079"
           d="m 1029.5475,819.01697 c 0,68.73227 -55.71855,124.45079 -124.45082,124.45079 -68.73227,0 -124.45079,-55.71852 -124.45079,-124.45079 0,-68.73228 55.71852,-124.45079 124.45079,-124.45079 68.73227,0 124.45082,55.71851 124.45082,124.45079 z"
           transform="matrix(1.3621813,0,0,1.3621813,-272.39328,1538.5538)" />
        <path
           inkscape:connector-curvature="0"
           id="path4217"
           d="m 884.04389,2562.2034 0,28.6562 107.0312,100.3125 0.3124,-29.4375 z m 152.99991,0 -59.56251,54.5 15.3125,14.9062 22.25001,-20.5937 0,135.125 22,0 z m -198.03131,18 0.031,166 22,0 0,-116.875 68.9376,65.4687 15.4688,-14.1875 -106.4377,-100.4062 z m 243.00001,0.031 -21.9374,20.5 -0.031,145.4375 21.9687,0.031 0,-165.9688 z m -197.99991,103.625 0.031,62.3437 10.9531,0 c 24.2031,1.2922 15.4356,-35.7483 -0.1406,-51.75 l -10.8438,-10.5937 z"
           style="fill:#ffffff;stroke:#000000;stroke-width:0.1;stroke-linecap:butt;stroke-linejoin:miter;stroke-miterlimit:4;stroke-opacity:1;stroke-dasharray:none"
           sodipodi:nodetypes="cccccccccccccccccccccccccccccccc" />
        <text
           transform="matrix(0.99993283,0.01159063,-0.01159063,0.99993283,0,0)"
           sodipodi:linespacing="125%"
           id="text4219"
           y="2630.012"
           x="779.11847"
           style="font-size:87.54348755px;font-style:normal;font-weight:normal;line-height:125%;letter-spacing:0px;word-spacing:0px;fill:#a2c0ff;fill-opacity:0.51546397;stroke:#000000;stroke-width:2.18858719;stroke-opacity:1;font-family:Sans"
           xml:space="preserve"><tspan
             style="font-size:78.78913879px;font-weight:bold;letter-spacing:0px;fill:#a2c0ff;fill-opacity:0.51546397;stroke:#000000;stroke-width:2.18858719;stroke-opacity:1;-inkscape-font-specification:Sans Bold"
             y="2630.012"
             x="779.11847"
             id="tspan4221"
             sodipodi:role="line"
             dy="0"
             dx="0">MESSAGE</tspan></text>
        <text
           xml:space="preserve"
           style="font-size:87.54347992px;font-style:normal;font-weight:normal;line-height:125%;letter-spacing:0px;word-spacing:0px;fill:#a2c0ff;fill-opacity:0.51546397;stroke:#000000;stroke-width:2.18858719;stroke-opacity:1;font-family:Sans"
           x="743.6593"
           y="2712.8613"
           id="text4223"
           sodipodi:linespacing="125%"
           transform="matrix(0.9999947,0.00325508,-0.00325508,0.9999947,0,0)"><tspan
             sodipodi:role="line"
             id="tspan4225"
             x="743.6593"
             y="2712.8613"
             style="font-size:78.78913879px;font-weight:bold;letter-spacing:0px;fill:#a2c0ff;fill-opacity:0.51546397;stroke:#000000;stroke-width:2.18858719;stroke-opacity:1;-inkscape-font-specification:Sans Bold"
             dx="0"
             dy="0">MANAGER</tspan></text>
      </g>
    </g>
    <g
       transform="translate(581.73593,-135.66104)"
       id="g4351">
      <path
         style="fill:#641444;fill-opacity:1;stroke:#000000;stroke-width:1px;stroke-linecap:butt;stroke-linejoin:miter;stroke-opacity:1"
         d="m 238.93171,277.10074 c 0,0 6.20739,-18.83125 31.97462,-24.84899 25.76722,-6.01774 42.27158,10.17114 42.27158,10.17114 0,0 24.1401,-18.42124 50.11478,-8.70375 25.97469,9.71749 27.51904,35.93727 27.51904,35.93727 l 0.1173,50.54823 -26.37444,-10.94973 -0.21947,-37.2959 c 0,0 -2.91563,-15.48913 -17.00458,-16.18367 -14.08896,-0.69454 -18.24344,15.23072 -18.24344,15.23072 l -0.2964,23.40095 -27.54546,-11.21349 0.27251,-11.86602 c 0,0 -3.25192,-14.78878 -16.83694,-15.78011 -13.58502,-0.99133 -18.06602,13.04638 -18.06602,13.04638 z"
         id="path4353"
         inkscape:connector-curvature="0"
         sodipodi:nodetypes="czczcccczcccczcc" />
      <path
         sodipodi:nodetypes="czczcccczcccczcc"
         inkscape:connector-curvature="0"
         id="path4355"
         d="m 550.92903,277.10074 c 0,0 -6.20739,-18.83125 -31.97462,-24.84899 -25.76722,-6.01774 -42.27158,10.17114 -42.27158,10.17114 0,0 -24.1401,-18.42124 -50.11478,-8.70375 -25.97469,9.71749 -27.51904,35.93727 -27.51904,35.93727 l -0.1173,50.54823 26.37444,-10.94973 0.21947,-37.2959 c 0,0 2.91563,-15.48913 17.00458,-16.18367 14.08896,-0.69454 18.24344,15.23072 18.24344,15.23072 l 0.2964,23.40095 27.54546,-11.21349 -0.27251,-11.86602 c 0,0 3.25192,-14.78878 16.83694,-15.78011 13.58502,-0.99133 18.06602,13.04638 18.06602,13.04638 z"
         style="fill:#641444;fill-opacity:1;stroke:#000000;stroke-width:1px;stroke-linecap:butt;stroke-linejoin:miter;stroke-opacity:1" />
    </g>
    <path
       style="fill:#0000ff;fill-rule:evenodd;stroke:#000000;stroke-width:0.68266976px;stroke-linecap:butt;stroke-linejoin:miter;stroke-opacity:1"
       d="m 820.97703,148.72966 156.2081,64 156.20807,-64 0,24.64922 -156.20807,64 -156.2081,-64 z"
       id="path4374"
       inkscape:connector-curvature="0"
       sodipodi:nodetypes="ccccccc" />
    <g
       id="g4388"
       transform="translate(-248.9588,-386.92475)"
       style="fill:#641444;fill-opacity:1">
      <g
         id="g4376"
         transform="translate(835,621)"
         style="fill:#641444;fill-opacity:1">
        <path
           sodipodi:nodetypes="czczcccczcccczcc"
           inkscape:connector-curvature="0"
           id="path4378"
           d="m 238.93171,277.10074 c 0,0 6.20739,-18.83125 31.97462,-24.84899 25.76722,-6.01774 42.27158,10.17114 42.27158,10.17114 0,0 24.1401,-18.42124 50.11478,-8.70375 25.97469,9.71749 27.51904,35.93727 27.51904,35.93727 l 0.1173,50.54823 -26.37444,-10.94973 -0.21947,-37.2959 c 0,0 -2.91563,-15.48913 -17.00458,-16.18367 -14.08896,-0.69454 -18.24344,15.23072 -18.24344,15.23072 l -0.2964,23.40095 -27.54546,-11.21349 0.27251,-11.86602 c 0,0 -3.25192,-14.78878 -16.83694,-15.78011 -13.58502,-0.99133 -18.06602,13.04638 -18.06602,13.04638 z"
           style="fill:#641444;fill-opacity:1;stroke:#000000;stroke-width:1px;stroke-linecap:butt;stroke-linejoin:miter;stroke-opacity:1" />
        <path
           style="fill:#641444;fill-opacity:1;stroke:#000000;stroke-width:1px;stroke-linecap:butt;stroke-linejoin:miter;stroke-opacity:1"
           d="m 550.92903,277.10074 c 0,0 -6.20739,-18.83125 -31.97462,-24.84899 -25.76722,-6.01774 -42.27158,10.17114 -42.27158,10.17114 0,0 -24.1401,-18.42124 -50.11478,-8.70375 -25.97469,9.71749 -27.51904,35.93727 -27.51904,35.93727 l -0.1173,50.54823 26.37444,-10.94973 0.21947,-37.2959 c 0,0 2.91563,-15.48913 17.00458,-16.18367 14.08896,-0.69454 18.24344,15.23072 18.24344,15.23072 l 0.2964,23.40095 27.54546,-11.21349 -0.27251,-11.86602 c 0,0 3.25192,-14.78878 16.83694,-15.78011 13.58502,-0.99133 18.06602,13.04638 18.06602,13.04638 z"
           id="path4380"
           inkscape:connector-curvature="0"
           sodipodi:nodetypes="czczcccczcccczcc" />
      </g>
      <path
         style="fill:#641444;fill-opacity:1;fill-rule:evenodd;stroke:#000000;stroke-width:0.68266976px;stroke-linecap:butt;stroke-linejoin:miter;stroke-opacity:1"
         d="m 1073.7192,867.80588 312.4162,0 0,-24.64922 -312.4162,0 z"
         id="path4382"
         inkscape:connector-curvature="0"
         sodipodi:nodetypes="ccccc" />
      <path
         sodipodi:nodetypes="ccccccc"
         inkscape:connector-curvature="0"
         id="path4384"
         d="m 1073.7192,902.69221 156.2081,64 156.2081,-64 0,10.50708 -156.2081,64 -156.2081,-64 z"
         style="fill:#641444;fill-opacity:1;fill-rule:evenodd;stroke:#000000;stroke-width:0.68266976px;stroke-linecap:butt;stroke-linejoin:miter;stroke-opacity:1" />
      <path
         style="fill:#641444;fill-opacity:1;fill-rule:evenodd;stroke:#000000;stroke-width:0.68266976px;stroke-linecap:butt;stroke-linejoin:miter;stroke-opacity:1"
         d="m 1073.7192,917.54146 156.2081,64 156.2081,-64 0,9.79997 -156.2081,64 -156.2081,-64 z"
         id="path4386"
         inkscape:connector-curvature="0"
         sodipodi:nodetypes="ccccccc" />
    </g>
    <g
       id="g4456"
       transform="translate(-249.3681,-552.38774)">
      <g
         transform="translate(835,621)"
         id="g3073">
        <path
           style="fill:#641444;fill-opacity:1;stroke:#000000;stroke-width:1px;stroke-linecap:butt;stroke-linejoin:miter;stroke-opacity:1"
           d="m 238.93171,277.10074 c 0,0 6.20739,-18.83125 31.97462,-24.84899 25.76722,-6.01774 42.27158,10.17114 42.27158,10.17114 0,0 24.1401,-18.42124 50.11478,-8.70375 25.97469,9.71749 27.51904,35.93727 27.51904,35.93727 l 0.1173,50.54823 -26.37444,-10.94973 -0.21947,-37.2959 c 0,0 -2.91563,-15.48913 -17.00458,-16.18367 -14.08896,-0.69454 -18.24344,15.23072 -18.24344,15.23072 l -0.2964,23.40095 -27.54546,-11.21349 0.27251,-11.86602 c 0,0 -3.25192,-14.78878 -16.83694,-15.78011 -13.58502,-0.99133 -18.06602,13.04638 -18.06602,13.04638 z"
           id="rect3050"
           inkscape:connector-curvature="0"
           sodipodi:nodetypes="czczcccczcccczcc" />
        <path
           sodipodi:nodetypes="czczcccczcccczcc"
           inkscape:connector-curvature="0"
           id="path3071"
           d="m 550.92903,277.10074 c 0,0 -6.20739,-18.83125 -31.97462,-24.84899 -25.76722,-6.01774 -42.27158,10.17114 -42.27158,10.17114 0,0 -24.1401,-18.42124 -50.11478,-8.70375 -25.97469,9.71749 -27.51904,35.93727 -27.51904,35.93727 l -0.1173,50.54823 26.37444,-10.94973 0.21947,-37.2959 c 0,0 2.91563,-15.48913 17.00458,-16.18367 14.08896,-0.69454 18.24344,15.23072 18.24344,15.23072 l 0.2964,23.40095 27.54546,-11.21349 -0.27251,-11.86602 c 0,0 3.25192,-14.78878 16.83694,-15.78011 13.58502,-0.99133 18.06602,13.04638 18.06602,13.04638 z"
           style="fill:#641444;fill-opacity:1;stroke:#000000;stroke-width:1px;stroke-linecap:butt;stroke-linejoin:miter;stroke-opacity:1" />
      </g>
      <path
         id="path4408"
         d="m 1140.0312,798.28125 c -51.3445,0 -92.9687,41.6238 -92.9687,92.96875 -0.656,9.9171 3.0657,20.95204 4.5625,27 l 178.3125,73.09375 179.3125,-73.375 c 2.9731,-6.97187 4.3956,-19.2866 4.4375,-26.71875 0,-51.34495 -41.624,-92.96875 -92.9687,-92.96875 -43.7636,0 -80.4594,30.24531 -90.3438,70.96875 -9.8844,-40.72344 -46.5802,-70.96875 -90.3438,-70.96875 z m 0,9.59375 c 42.1792,0 77.0201,31.29462 82.5938,71.9375 l 15.4688,0 c 5.5781,-40.64288 40.4461,-71.9375 82.625,-71.9375 46.0606,0 83.375,37.314 83.375,83.375 0,6.81721 -0.8333,13.43858 -2.375,19.78125 l -171.7813,70.5 -170.8125,-70 c -1.6224,-6.49298 -2.5,-13.28594 -2.5,-20.28125 0,-46.061 37.3457,-83.375 83.4062,-83.375 z m 0,3.75 c -43.9764,0 -79.625,35.64816 -79.625,79.625 -0.079,4.74636 1.0328,15.59696 3.1563,17.84375 L 1229.9375,977.1875 1397.5,908.5 c 2.8341,-4.62528 2.823,-12.95084 2.8438,-17.25 0,-43.97684 -35.6485,-79.625 -79.625,-79.625 -40.0941,0 -73.2671,29.6289 -78.8126,68.1875 l 3.75,0 c 2.1771,-2.15786 4.5944,-4.07268 7.2188,-5.6875 7.642,-30.35906 35.1127,-52.84375 67.8438,-52.84375 38.6425,0 69.9687,31.32586 69.9687,69.96875 0,3.39502 -0.2453,6.73787 -0.7187,10 l -160.0313,65.4375 -159.125,-65.21875 c -0.4922,-3.33455 -0.75,-6.74526 -0.75,-10.21875 0,-38.64289 31.326,-69.96875 69.9687,-69.96875 32.8769,0 60.4392,22.68569 67.9376,53.25 2.3842,1.52857 4.5911,3.29632 6.5937,5.28125 l 4.2813,0 c -5.5453,-38.5586 -38.7184,-68.1875 -78.8126,-68.1875 z"
         style="fill:#641444;fill-opacity:1;stroke:#000000;stroke-width:0.94587755px;stroke-linecap:butt;stroke-linejoin:miter;stroke-opacity:1"
         inkscape:connector-curvature="0" />
    </g>
    <g
       id="g4470"
       transform="translate(47.437408,508.2725)"
       style="fill:#641444;fill-opacity:1">
      <g
         transform="translate(537.73593,-139.66104)"
         id="g4462"
         style="fill:#641444;fill-opacity:1">
        <path
           style="fill:#641444;fill-opacity:1;stroke:#000000;stroke-width:1px;stroke-linecap:butt;stroke-linejoin:miter;stroke-opacity:1"
           d="m 238.93171,277.10074 c 0,0 6.20739,-18.83125 31.97462,-24.84899 25.76722,-6.01774 42.27158,10.17114 42.27158,10.17114 0,0 24.1401,-18.42124 50.11478,-8.70375 25.97469,9.71749 27.51904,35.93727 27.51904,35.93727 l 0.1173,50.54823 -26.37444,-10.94973 -0.21947,-37.2959 c 0,0 -2.91563,-15.48913 -17.00458,-16.18367 -14.08896,-0.69454 -18.24344,15.23072 -18.24344,15.23072 l -0.2964,23.40095 -27.54546,-11.21349 0.27251,-11.86602 c 0,0 -3.25192,-14.78878 -16.83694,-15.78011 -13.58502,-0.99133 -18.06602,13.04638 -18.06602,13.04638 z"
           id="path4464"
           inkscape:connector-curvature="0"
           sodipodi:nodetypes="czczcccczcccczcc" />
        <path
           sodipodi:nodetypes="czczcccczcccczcc"
           inkscape:connector-curvature="0"
           id="path4466"
           d="m 550.92903,277.10074 c 0,0 -6.20739,-18.83125 -31.97462,-24.84899 -25.76722,-6.01774 -42.27158,10.17114 -42.27158,10.17114 0,0 -24.1401,-18.42124 -50.11478,-8.70375 -25.97469,9.71749 -27.51904,35.93727 -27.51904,35.93727 l -0.1173,50.54823 26.37444,-10.94973 0.21947,-37.2959 c 0,0 2.91563,-15.48913 17.00458,-16.18367 14.08896,-0.69454 18.24344,15.23072 18.24344,15.23072 l 0.2964,23.40095 27.54546,-11.21349 -0.27251,-11.86602 c 0,0 3.25192,-14.78878 16.83694,-15.78011 13.58502,-0.99133 18.06602,13.04638 18.06602,13.04638 z"
           style="fill:#641444;fill-opacity:1;stroke:#000000;stroke-width:1px;stroke-linecap:butt;stroke-linejoin:miter;stroke-opacity:1" />
      </g>
      <path
         style="fill:#641444;fill-opacity:1;fill-rule:evenodd;stroke:#000000;stroke-width:0.68266976px;stroke-linecap:butt;stroke-linejoin:miter;stroke-opacity:1"
         d="m 776.97703,144.72966 156.2081,64 156.20807,-64 0,24.64922 -156.20807,64 -156.2081,-64 z"
         id="path4468"
         inkscape:connector-curvature="0"
         sodipodi:nodetypes="ccccccc" />
    </g>
    <path
       inkscape:connector-curvature="0"
       id="path4540"
       d="m 310.2251,122.24911 0,28.65625 107.0313,100.3125 0.3124,-29.4375 -39.4687,-37.21875 0,-0.21875 -67.875,-62.09375 z m 153,0 -59.5625,54.5 15.3125,14.90625 22.25,-20.59375 0,135.125 22,0 0,-123.90625 0,-42.0625 0,-17.96875 z m -198.0313,18 0.031,166 22,0 0,-116.875 68.9375,65.46875 15.4688,-14.1875 -61.4376,-58.375 0,-0.0625 -45,-41.96875 z m 243,0.0312 -21.9374,20.5 -0.031,145.4375 15,0.0312 6.9687,0 0,-165.96875 z m -198,103.625 0.031,62.34375 21.9063,0 -0.25,-41.15625 -21.6876,-21.1875 z"
       style="fill:#c80000;fill-opacity:1;stroke:none" />
    <text
       xml:space="preserve"
       style="font-size:40px;font-style:normal;font-weight:normal;line-height:125%;letter-spacing:0px;word-spacing:0px;fill:#000000;fill-opacity:1;stroke:none;font-family:Sans"
       x="-632"
       y="-215.63782"
       id="text3066"
       sodipodi:linespacing="125%"><tspan
         sodipodi:role="line"
         id="tspan3068"
         x="-632"
         y="-215.63782">RESOURCE: https://dribbble.com/michaelspitz</tspan></text>
    <text
       xml:space="preserve"
       style="font-size:40px;font-style:normal;font-weight:normal;line-height:125%;letter-spacing:0px;word-spacing:0px;fill:#ffffff;fill-opacity:1;stroke:none;font-family:Sans"
       x="53.600941"
       y="487.67465"
       id="text3613"
       sodipodi:linespacing="125%"
       inkscape:export-filename="/home/david/Dropbox/Projects/Java/MessageManager/files/images/AppTitle.png"
       inkscape:export-xdpi="90"
       inkscape:export-ydpi="90"><tspan
         sodipodi:role="line"
         id="tspan3615"
         x="53.600941"
         y="487.67465"
         style="font-size:64px"><tspan
   style="font-size:64px;font-weight:bold;fill:#ffffff"
   id="tspan3617">MESSAGE</tspan>Manager</tspan></text>
  </g>
</svg>
