<?xml version="1.0" encoding="UTF-8" standalone="no"?>
<!-- Created with Inkscape (http://www.inkscape.org/) -->

<svg
   xmlns:osb="http://www.openswatchbook.org/uri/2009/osb"
   xmlns:dc="http://purl.org/dc/elements/1.1/"
   xmlns:cc="http://creativecommons.org/ns#"
   xmlns:rdf="http://www.w3.org/1999/02/22-rdf-syntax-ns#"
   xmlns:svg="http://www.w3.org/2000/svg"
   xmlns="http://www.w3.org/2000/svg"
   xmlns:sodipodi="http://sodipodi.sourceforge.net/DTD/sodipodi-0.dtd"
   xmlns:inkscape="http://www.inkscape.org/namespaces/inkscape"
   width="585"
   height="285"
   id="svg2"
   version="1.1"
   inkscape:version="0.48.4 r9939"
   sodipodi:docname="splashScreen.svg"
   inkscape:export-filename="/home/david/Dropbox/Projects/Java/MessageGeneratorFX/files/splashScreen.png"
   inkscape:export-xdpi="90"
   inkscape:export-ydpi="90">
  <defs
     id="defs4">
    <linearGradient
       id="linearGradient4041"
       osb:paint="solid">
      <stop
         style="stop-color:#000000;stop-opacity:1;"
         offset="0"
         id="stop4043" />
    </linearGradient>
    <filter
       inkscape:collect="always"
       id="filter3844">
      <feGaussianBlur
         inkscape:collect="always"
         stdDeviation="1.4715255"
         id="feGaussianBlur3846" />
    </filter>
    <filter
       inkscape:collect="always"
       id="filter4258">
      <feGaussianBlur
         inkscape:collect="always"
         stdDeviation="0.74609397"
         id="feGaussianBlur4260" />
    </filter>
    <filter
       color-interpolation-filters="sRGB"
       inkscape:collect="always"
       id="filter3844-1">
      <feGaussianBlur
         inkscape:collect="always"
         stdDeviation="1.4715255"
         id="feGaussianBlur3846-1" />
    </filter>
  </defs>
  <sodipodi:namedview
     id="base"
     pagecolor="#ffffff"
     bordercolor="#666666"
     borderopacity="1.0"
     inkscape:pageopacity="0"
     inkscape:pageshadow="2"
     inkscape:zoom="1.4142136"
     inkscape:cx="179.54801"
     inkscape:cy="152.02466"
     inkscape:document-units="px"
     inkscape:current-layer="layer1"
     showgrid="false"
     width="585px"
     inkscape:snap-global="true"
     showguides="true"
     inkscape:snap-to-guides="true"
     inkscape:snap-grids="false"
     inkscape:snap-page="false"
     inkscape:guide-bbox="true"
     inkscape:window-width="1366"
     inkscape:window-height="716"
     inkscape:window-x="0"
     inkscape:window-y="25"
     inkscape:window-maximized="1">
    <inkscape:grid
       type="xygrid"
       id="grid2991"
       empspacing="5"
       visible="true"
       enabled="true"
       snapvisiblegridlinesonly="true" />
  </sodipodi:namedview>
  <metadata
     id="metadata7">
    <rdf:RDF>
      <cc:Work
         rdf:about="">
        <dc:format>image/svg+xml</dc:format>
        <dc:type
           rdf:resource="http://purl.org/dc/dcmitype/StillImage" />
        <dc:title />
      </cc:Work>
    </rdf:RDF>
  </metadata>
  <g
     inkscape:label="Layer 1"
     inkscape:groupmode="layer"
     id="layer1"
     transform="translate(0,-767.36218)">
    <rect
       style="fill:#4d4d4d;fill-opacity:1;fill-rule:evenodd;stroke:none"
       id="rect4262"
       width="63.40987"
       height="57.09642"
       x="11.352811"
       y="979.36725"
       inkscape:export-filename="/home/david/Dropbox/Projects/Java/MessageGeneratorFX/files/splash_screen_new.png"
       inkscape:export-xdpi="90"
       inkscape:export-ydpi="90" />
    <text
       sodipodi:linespacing="125%"
       id="text3769"
       y="843.11981"
       x="17.900482"
       style="font-size:40px;font-style:normal;font-weight:normal;line-height:125%;letter-spacing:0px;word-spacing:0px;fill:#000000;fill-opacity:0.67010307;stroke:none;font-family:Sans"
       xml:space="preserve"
       inkscape:export-filename="/home/david/Dropbox/Projects/Java/MessageGeneratorFX/files/splash_screen_new.png"
       inkscape:export-xdpi="90"
       inkscape:export-ydpi="90"><tspan
         style="font-size:72px;font-style:normal;font-variant:normal;font-weight:bold;font-stretch:normal;fill:#000000;fill-opacity:0.67010307;font-family:Symbol;-inkscape-font-specification:Symbol Bold"
         y="843.11981"
         x="17.900482"
         id="tspan3771"
         sodipodi:role="line">Mg</tspan></text>
    <path
       style="font-size:40px;font-style:normal;font-weight:normal;line-height:125%;letter-spacing:0px;word-spacing:0px;opacity:0.80464286;fill:#000000;fill-opacity:0.67010307;stroke:#000000;stroke-opacity:1;filter:url(#filter3844);font-family:Sans"
       d="m 13.705363,777.11663 0,94.4375 135.281247,0 0,-94.4375 z m 10.8125,15.84375 17.21875,0 11.9375,28.09375 12.03125,-28.09375 17.1875,0 0,52.46875 -12.78125,0 0,-38.375 -12.09375,28.3125 -8.59375,0 -12.09375,-28.3125 0,38.375 -12.8125,0 z m 84.968747,12.21875 c 2.74216,4e-5 5.16404,0.54691 7.25,1.625 2.08591,1.07816 3.98434,2.77347 5.71875,5.09375 l 0,-5.84375 12.65625,0 0,35.40625 c -5e-5,6.32812 -1.99223,11.17187 -6,14.5 -3.98441,3.35155 -9.78128,5.03123 -17.375,5.03125 -2.46096,-2e-5 -4.85939,-0.18752 -7.15625,-0.5625 -2.29689,-0.37501 -4.585946,-0.94533 -6.906247,-1.71875 l 0,-9.8125 c 2.203111,1.26562 4.359357,2.20312 6.468747,2.8125 2.10936,0.63281 4.21092,0.93749 6.34375,0.9375 4.12497,-10e-6 7.17185,-0.91407 9.09375,-2.71875 1.92184,-1.80469 2.87497,-4.625 2.875,-8.46875 l 0,-2.6875 c -1.73441,2.29688 -3.63284,3.98438 -5.71875,5.0625 -2.08596,1.07813 -4.50784,1.59375 -7.25,1.59375 -4.8047,0 -8.79689,-1.88281 -11.937497,-5.65625 -3.14063,-3.79687 -4.6875,-8.60936 -4.6875,-14.46875 0,-5.88279 1.54687,-10.71872 4.6875,-14.46875 3.140607,-3.7734 7.132797,-5.65621 11.937497,-5.65625 z m 4.65625,9.09375 c -2.60158,3e-5 -4.60939,0.95316 -6.0625,2.875 -1.45314,1.9219 -2.18752,4.64065 -2.1875,8.15625 -2e-5,3.60939 0.71873,6.34376 2.125,8.21875 1.40623,1.85157 3.42967,2.78126 6.125,2.78125 2.62497,10e-6 4.67185,-0.95311 6.125,-2.875 1.45309,-1.92186 2.18747,-4.6328 2.1875,-8.125 -3e-5,-3.5156 -0.73441,-6.23435 -2.1875,-8.15625 -1.45315,-1.92184 -3.50003,-2.87497 -6.125,-2.875 z"
       id="text3782"
       inkscape:connector-curvature="0"
       sodipodi:nodetypes="ccccccccccccccccccccccccsccccccscscsscscccsccssccc"
       inkscape:export-filename="/home/david/Dropbox/Projects/Java/MessageGeneratorFX/files/splash_screen_new.png"
       inkscape:export-xdpi="90"
       inkscape:export-ydpi="90" />
    <path
       style="fill:#000000;fill-opacity:1;fill-rule:evenodd;stroke:#000000;stroke-opacity:1;filter:url(#filter4258)"
       d="m 15.582908,977.18225 0,58.78145 60.437494,0 0,-58.78145 z m 28.968744,6.875 c 0.33793,-0.0181 0.69176,0 1.03125,0 10.8636,0 19.3125,7.44339 19.3125,17.71895 0,10.2754 -9.855981,18.9062 -22.125,18.9062 -7.11631,0 -11.77653,-6.7231 -2.96875,-15.2187 l 3.28125,1.375 c -5.37681,6.5458 2.14651,12.4003 9.4375,9.3437 8.308585,-3.4833 12.359048,-11.1772 5.875,-21.18768 -5.409562,-8.35143 -24.9206,-8.52285 -32.09375,6.84398 l -1.8125,-0.4688 c 0,-7.62848 9.58663,-16.75064 20.0625,-17.31265 z m -0.3125,10.65627 c 3.069947,0 5.53125,2.4926 5.53125,5.56258 0,3.0701 -2.461303,5.5313 -5.53125,5.5313 -3.06995,0 -5.5625,-2.4612 -5.5625,-5.5313 0,-3.06998 2.49255,-5.56258 5.5625,-5.56258 z m 16.125,27.90638 c 0.565751,0 1.059566,0.082 1.5,0.25 l -0.4375,1.1875 c -0.329431,-0.1042 -0.626957,-0.1562 -0.90625,-0.1562 -0.232751,0 -0.396162,0.079 -0.5,0.2187 -0.10384,0.1361 -0.156253,0.3164 -0.15625,0.5313 l 0,0.375 1.40625,0 0,1.2187 -1.40625,0 0,4.7813 -1.625,0 0,-4.7813 -0.90625,0 0,-0.7812 0.90625,-0.4375 0,-0.4375 c -10e-7,-0.6839 0.16341,-1.1849 0.5,-1.5 0.336587,-0.3151 0.883787,-0.4688 1.625,-0.4688 z m -12.875,0.4375 c 0.408199,0 0.787431,0.059 1.15625,0.1563 0.372391,0.097 0.782872,0.2308 1.1875,0.4062 l -0.53125,1.2813 c -0.41895,-0.1719 -0.786788,-0.2758 -1.0625,-0.3438 -0.272139,-0.068 -0.54753,-0.094 -0.8125,-0.094 -0.315107,0 -0.55046,0.072 -0.71875,0.2187 -0.1683,0.1468 -0.25001,0.3262 -0.25,0.5625 -10e-5,0.1468 0.02575,0.264 0.09375,0.375 0.06803,0.1075 0.19693,0.2087 0.34375,0.3125 0.150385,0.1003 0.507484,0.2976 1.0625,0.5625 0.734045,0.3509 1.22786,0.708 1.5,1.0625 0.27213,0.3509 0.406244,0.7692 0.40625,1.2813 -6e-6,0.709 -0.269211,1.2793 -0.78125,1.6875 -0.508468,0.4082 -1.215501,0.625 -2.125,0.625 -0.8379,0 -1.57422,-0.1849 -2.21875,-0.5 l 0,-1.5313 c 0.52994,0.2364 0.97851,0.403 1.34375,0.5 0.36881,0.096 0.69563,0.1563 1,0.1563 0.365231,0 0.650387,-0.079 0.84375,-0.2188 0.196936,-0.1396 0.312496,-0.3493 0.3125,-0.625 -4e-6,-0.1539 -0.03907,-0.2881 -0.125,-0.4062 -0.08594,-0.1218 -0.237959,-0.2328 -0.40625,-0.3438 -0.164717,-0.111 -0.487962,-0.2877 -1,-0.5312 -0.47982,-0.2256 -0.85385,-0.4486 -1.09375,-0.6563 -0.23991,-0.2077 -0.41928,-0.443 -0.5625,-0.7187 -0.14325,-0.2757 -0.21875,-0.6 -0.21875,-0.9688 0,-0.6946 0.24967,-1.2588 0.71875,-1.6562 0.47265,-0.3975 1.10676,-0.5938 1.9375,-0.5938 z m -23.28125,0.125 2.4375,0 c 1.28189,0 2.29101,0.3233 3,1 0.70897,0.6768 1.06249,1.6299 1.0625,2.8438 -10e-6,1.2926 -0.35613,2.2812 -1.09375,2.9687 -0.73406,0.6875 -1.79819,1.0313 -3.1875,1.0313 l -2.21875,0 z m 38.78125,0.5625 1.03125,0 0,1.2813 1.6875,0 0,1.2187 -1.6875,0 0,2.9063 c -3e-6,0.2327 0.08984,0.389 0.21875,0.5 0.132484,0.1115 0.285153,0.1875 0.5,0.1875 0.286455,0 0.630204,-0.062 1.03125,-0.1875 l 0,1.2187 c -0.408207,0.1823 -0.905602,0.2813 -1.5,0.2813 -0.655276,0 -1.136721,-0.1706 -1.4375,-0.5 -0.297202,-0.333 -0.437501,-0.8376 -0.4375,-1.5 l 0,-2.9063 -0.78125,0 0,-0.6875 0.90625,-0.5312 z m -37.125,0.7813 0,5.125 0.71875,0 c 1.60416,0 2.40624,-0.8714 2.40625,-2.5938 -10e-6,-1.6865 -0.76043,-2.5312 -2.25,-2.5312 z m 8.8125,0.375 c 0.80566,0 1.41405,0.1803 1.84375,0.5312 0.42968,0.3509 0.65624,0.8776 0.65625,1.5938 l 0,4 -1.15625,0 -0.3125,-0.8125 -0.0625,0 c -0.27572,0.3473 -0.55014,0.5827 -0.84375,0.7187 -0.29005,0.1328 -0.65593,0.2188 -1.125,0.2188 -0.5765,0 -1.042,-0.1706 -1.375,-0.5 -0.32943,-0.3295 -0.5,-0.7975 -0.5,-1.4063 0,-0.6373 0.24349,-1.1054 0.6875,-1.4062 0.44759,-0.3044 1.10123,-0.4993 2,-0.5313 l 1.0625,-0.031 0,-0.25 c -10e-6,-0.6087 -0.31446,-0.9063 -0.9375,-0.9063 -0.47982,0 -1.07064,0.1475 -1.71875,0.4375 l -0.53125,-1.125 c 0.69108,-0.3616 1.47102,-0.5312 2.3125,-0.5312 z m 19.03125,0 c 0.576493,0 1.090816,0.1243 1.53125,0.375 0.440424,0.2506 0.794916,0.6247 1.03125,1.0937 0.236322,0.4691 0.343744,1.0261 0.34375,1.6563 -6e-6,0.9775 -0.265631,1.7298 -0.78125,2.2812 -0.51563,0.5515 -1.236007,0.8438 -2.15625,0.8438 -0.5765,0 -1.090823,-0.1556 -1.53125,-0.4063 -0.440431,-0.2542 -0.763673,-0.5898 -1,-1.0625 -0.236329,-0.4726 -0.34375,-1.026 -0.34375,-1.6562 0,-0.9811 0.237955,-1.7682 0.75,-2.3125 0.512042,-0.5443 1.228839,-0.8125 2.15625,-0.8125 z m -15.71875,0.125 1.71875,0 1.15625,3.4062 c 0.11816,0.3724 0.18295,0.8024 0.21875,1.25 l 0.0625,0 c 0.02148,-0.4046 0.07909,-0.8346 0.21875,-1.25 l 1.15625,-3.4062 1.71875,0 -2.28125,6 -1.6875,0 z m 15.40625,1.2187 c -0.281983,0.056 -0.511232,0.2146 -0.65625,0.4375 -0.19336,0.2936 -0.281252,0.7458 -0.28125,1.3438 -2e-6,0.5944 0.08789,1.0394 0.28125,1.3437 0.196937,0.3044 0.528317,0.4375 0.96875,0.4375 0.436845,0 0.747717,-0.1367 0.9375,-0.4375 0.19335,-0.3043 0.281245,-0.7457 0.28125,-1.3437 -5e-6,-0.5944 -0.08789,-1.0466 -0.28125,-1.3438 -0.193364,-0.2972 -0.497074,-0.4375 -0.9375,-0.4375 -0.109213,0 -0.21851,-0.019 -0.3125,0 z m -17.84375,2 -0.65625,0.031 c -0.47624,0.014 -0.82976,0.092 -1.0625,0.25 -0.23275,0.1575 -0.34376,0.3965 -0.34375,0.7187 -10e-6,0.4619 0.2513,0.6875 0.78125,0.6875 0.37955,0 0.71191,-0.094 0.9375,-0.3125 0.22916,-0.2184 0.34374,-0.5133 0.34375,-0.875 l 0,-0.5 z"
       id="rect4169"
       inkscape:connector-curvature="0"
       sodipodi:nodetypes="ccccccsssccsscccssssssccsccccccccccccssscccccsccccccccscccscccccccsccccscccsccccccccccsccscscccccccscscccccccccscsccccsccccsccccsccssscccccccccccccscsccsscccccscccc"
       inkscape:export-filename="/home/david/Dropbox/Projects/Java/MessageGeneratorFX/files/splash_screen_new.png"
       inkscape:export-xdpi="90"
       inkscape:export-ydpi="90" />
    <path
       style="fill:#e2aa00;fill-opacity:1;fill-rule:evenodd"
       d="m 0,767.36218 0,285.00002 585,0 0,-285.00002 -585,0 z m 24.46875,23.21875 17.21875,0 11.96875,28.09375 12,-28.09375 17.21875,0 0,52.5 -12.8125,0 0,-38.40625 -12.09375,28.3125 -8.5625,0 -12.09375,-28.3125 0,38.40625 -12.84375,0 0,-52.5 z m 84.96875,12.25 c 2.74216,4e-5 5.16404,0.51567 7.25,1.59375 2.08591,1.07816 3.98434,2.80472 5.71875,5.125 l 0,-5.84375 12.65625,0 0,35.40625 c -5e-5,6.32812 -1.99223,11.14062 -6,14.46875 -3.98441,3.35155 -9.78128,5.03123 -17.375,5.03125 -2.46096,-2e-5 -4.82814,-0.18751 -7.125,-0.5625 -2.29689,-0.37501 -4.617198,-0.94533 -6.9375,-1.71875 l 0,-9.8125 c 2.203115,1.26562 4.35936,2.20312 6.46875,2.8125 2.10936,0.63281 4.24217,0.93749 6.375,0.9375 4.12497,-10e-6 7.1406,-0.88282 9.0625,-2.6875 1.92184,-1.80469 2.87497,-4.625 2.875,-8.46875 l 0,-2.71875 c -1.73441,2.29688 -3.63284,3.98438 -5.71875,5.0625 -2.08596,1.07813 -4.50784,1.625 -7.25,1.625 -4.8047,0 -8.76564,-1.88281 -11.90625,-5.65625 -3.14063,-3.79687 -4.718753,-8.64061 -4.71875,-14.5 -3e-6,-5.88279 1.57812,-10.68747 4.71875,-14.4375 3.14061,-3.7734 7.10155,-5.65621 11.90625,-5.65625 z m 4.6875,9.0625 c -2.60158,3e-5 -4.64064,0.95316 -6.09375,2.875 -1.45314,1.9219 -2.18752,4.64065 -2.1875,8.15625 -2e-5,3.60939 0.71873,6.34376 2.125,8.21875 1.40623,1.85157 3.46092,2.78126 6.15625,2.78125 2.62497,1e-5 4.6406,-0.95311 6.09375,-2.875 1.45309,-1.92186 2.18747,-4.6328 2.1875,-8.125 -3e-5,-3.5156 -0.73441,-6.23435 -2.1875,-8.15625 -1.45315,-1.92184 -3.46878,-2.87497 -6.09375,-2.875 z M 44.5625,983.42468 c 0.33793,-0.018 0.69177,0 1.03125,0 10.86361,0 19.3125,7.44331 19.3125,17.71872 0,10.2754 -9.85597,18.9063 -22.125,18.9063 -7.116306,0 -11.776516,-6.7232 -2.96875,-15.2188 l 3.28125,1.375 c -5.376796,6.5458 2.14652,12.4004 9.4375,9.3438 8.30859,-3.4833 12.35905,-11.1771 5.875,-21.18752 -5.40956,-8.3515 -24.92059,-8.52299 -32.09375,6.84372 L 24.5,1000.7372 c 0,-7.62856 9.586644,-16.75052 20.0625,-17.31252 z M 44.25,994.08093 c 3.06995,0 5.53125,2.4926 5.53125,5.56247 0,3.0702 -2.4613,5.5313 -5.53125,5.5313 -3.06995,0 -5.5625,-2.4611 -5.5625,-5.5313 0,-3.06987 2.49255,-5.56247 5.5625,-5.56247 z m 16.125,27.90627 c 0.56575,0 1.05957,0.082 1.5,0.25 l -0.4375,1.1875 c -0.32943,-0.1043 -0.62695,-0.1563 -0.90625,-0.1563 -0.23275,0 -0.39616,0.079 -0.5,0.2188 -0.10385,0.136 -0.15625,0.3164 -0.15625,0.5312 l 0,0.375 1.40625,0 0,1.2188 -1.40625,0 0,4.7812 -1.625,0 0,-4.7812 -0.90625,0 0,-0.7813 0.90625,-0.4375 0,-0.4375 c 0,-0.6839 0.16341,-1.1849 0.5,-1.5 0.33659,-0.3151 0.88379,-0.4687 1.625,-0.4687 z m -12.875,0.4375 c 0.4082,0 0.78743,0.059 1.15625,0.1562 0.37239,0.097 0.78288,0.2309 1.1875,0.4063 l -0.53125,1.2812 c -0.41895,-0.1719 -0.78678,-0.2757 -1.0625,-0.3437 -0.27214,-0.068 -0.54753,-0.094 -0.8125,-0.094 -0.3151,0 -0.55045,0.072 -0.71875,0.2188 -0.1683,0.1468 -0.25,0.3262 -0.25,0.5625 0,0.1468 0.02575,0.264 0.09375,0.375 0.06803,0.1074 0.19694,0.2086 0.34375,0.3125 0.15039,0.1002 0.50749,0.2975 1.0625,0.5625 0.73405,0.3509 1.22786,0.708 1.5,1.0625 0.27213,0.3509 0.40625,0.7692 0.40625,1.2812 0,0.709 -0.26921,1.2793 -0.78125,1.6875 -0.50846,0.4082 -1.21549,0.625 -2.125,0.625 -0.83789,0 -1.57422,-0.1849 -2.21875,-0.5 l 0,-1.5312 c 0.52995,0.2363 0.97852,0.403 1.34375,0.5 0.36882,0.096 0.69564,0.1562 1,0.1562 0.36523,0 0.65039,-0.079 0.84375,-0.2187 0.19694,-0.1397 0.3125,-0.3493 0.3125,-0.625 0,-0.154 -0.0391,-0.2881 -0.125,-0.4063 -0.08594,-0.1217 -0.23796,-0.2327 -0.40625,-0.3437 -0.16471,-0.111 -0.48796,-0.2878 -1,-0.5313 -0.47982,-0.2256 -0.85384,-0.4485 -1.09375,-0.6562 -0.23991,-0.2077 -0.41927,-0.4431 -0.5625,-0.7188 -0.14325,-0.2757 -0.21875,-0.5999 -0.21875,-0.9687 0,-0.6947 0.24968,-1.2588 0.71875,-1.6563 0.47266,-0.3974 1.10677,-0.5937 1.9375,-0.5937 z m -23.28125,0.125 2.4375,0 c 1.2819,0 2.29101,0.3232 3,1 0.70898,0.6767 1.0625,1.6299 1.0625,2.8437 0,1.2927 -0.35612,2.2813 -1.09375,2.9688 -0.73405,0.6875 -1.79818,1.0312 -3.1875,1.0312 l -2.21875,0 0,-7.8437 z M 63,1023.1122 l 1.03125,0 0,1.2812 1.6875,0 0,1.2188 -1.6875,0 0,2.9062 c 0,0.2328 0.08984,0.389 0.21875,0.5 0.13249,0.1115 0.28516,0.1875 0.5,0.1875 0.28646,0 0.63021,-0.062 1.03125,-0.1875 l 0,1.2188 c -0.4082,0.1822 -0.9056,0.2812 -1.5,0.2812 -0.65527,0 -1.13672,-0.1705 -1.4375,-0.5 -0.2972,-0.333 -0.4375,-0.8375 -0.4375,-1.5 l 0,-2.9062 -0.78125,0 0,-0.6875 0.90625,-0.5313 L 63,1023.1122 z m -37.125,0.7812 0,5.125 0.71875,0 c 1.60417,0 2.40625,-0.8714 2.40625,-2.5937 0,-1.6865 -0.76042,-2.5313 -2.25,-2.5313 l -0.875,0 z m 8.8125,0.375 c 0.80566,0 1.41406,0.1804 1.84375,0.5313 0.42969,0.3509 0.65625,0.8775 0.65625,1.5937 l 0,4 -1.15625,0 -0.3125,-0.8125 -0.0625,0 c -0.27572,0.3473 -0.55013,0.5828 -0.84375,0.7188 -0.29004,0.1328 -0.65592,0.2187 -1.125,0.2187 -0.5765,0 -1.04199,-0.1706 -1.375,-0.5 -0.32942,-0.3295 -0.5,-0.7974 -0.5,-1.4062 0,-0.6373 0.24349,-1.1055 0.6875,-1.4063 0.44759,-0.3044 1.10124,-0.4992 2,-0.5312 l 1.0625,-0.031 0,-0.25 c 0,-0.6087 -0.31445,-0.9062 -0.9375,-0.9062 -0.47982,0 -1.07064,0.1474 -1.71875,0.4375 L 32.375,1024.8 c 0.69108,-0.3617 1.47103,-0.5313 2.3125,-0.5313 z m 19.03125,0 c 0.5765,0 1.09082,0.1244 1.53125,0.375 0.44043,0.2507 0.79492,0.6247 1.03125,1.0938 0.23633,0.4691 0.34375,1.026 0.34375,1.6562 0,0.9776 -0.26563,1.7298 -0.78125,2.2813 -0.51563,0.5514 -1.236,0.8437 -2.15625,0.8437 -0.5765,0 -1.09082,-0.1556 -1.53125,-0.4062 -0.44043,-0.2543 -0.76367,-0.5899 -1,-1.0625 -0.23633,-0.4727 -0.34375,-1.0261 -0.34375,-1.6563 0,-0.9811 0.23796,-1.7682 0.75,-2.3125 0.51205,-0.5442 1.22884,-0.8125 2.15625,-0.8125 z M 38,1024.3934 l 1.71875,0 1.15625,3.4063 c 0.11816,0.3724 0.18295,0.8024 0.21875,1.25 l 0.0625,0 c 0.02148,-0.4046 0.0791,-0.8347 0.21875,-1.25 l 1.15625,-3.4063 1.71875,0 -2.28125,6 -1.6875,0 -2.28125,-6 z m 15.40625,1.2188 c -0.28198,0.056 -0.51123,0.2146 -0.65625,0.4375 -0.19335,0.2936 -0.28125,0.7457 -0.28125,1.3437 0,0.5944 0.08789,1.0394 0.28125,1.3438 0.19694,0.3043 0.52832,0.4375 0.96875,0.4375 0.43685,0 0.74772,-0.1367 0.9375,-0.4375 0.19335,-0.3044 0.28125,-0.7458 0.28125,-1.3438 0,-0.5944 -0.08789,-1.0465 -0.28125,-1.3437 -0.19336,-0.2972 -0.49707,-0.4375 -0.9375,-0.4375 -0.10921,0 -0.2185,-0.019 -0.3125,0 z m -17.84375,2 -0.65625,0.031 c -0.47624,0.014 -0.82975,0.092 -1.0625,0.25 -0.23275,0.1576 -0.34375,0.3965 -0.34375,0.7188 0,0.4619 0.2513,0.6875 0.78125,0.6875 0.37956,0 0.71191,-0.094 0.9375,-0.3125 0.22917,-0.2184 0.34375,-0.5134 0.34375,-0.875 l 0,-0.5 z"
       id="rect2995"
       inkscape:connector-curvature="0"
       inkscape:export-filename="/home/david/Dropbox/Projects/Java/MessageGeneratorFX/files/splash_screen_new.png"
       inkscape:export-xdpi="90"
       inkscape:export-ydpi="90" />
    <g
       id="g3006"
       transform="translate(-157.57143,-185.28571)">
      <path
         inkscape:connector-curvature="0"
         id="path3859"
         d="m -45.490438,911.84268 c -10.86361,0 -21.07983,9.4547 -21.07983,17.32909 l 1.81899,0.4714 c 7.17315,-15.36657 26.67133,-15.20725 32.0809,-6.85579 6.484045,10.01029 2.44681,17.69909 -5.86177,21.18239 -7.29099,3.0566 -14.80995,-2.7951 -9.43315,-9.3409 l -3.28956,-1.3784 c -8.80777,8.4956 -4.16493,15.2386 2.95138,15.2386 12.26902,0 22.130231,-8.632 22.130231,-18.9074 0,-10.2753 -8.453591,-17.73899 -19.317191,-17.73899 z m -1.3476,10.65776 c -3.06994,0 -5.55945,2.48952 -5.55945,5.55942 0,3.07001 2.48951,5.55951 5.55945,5.55951 3.06995,0 5.55946,-2.4895 5.55946,-5.55951 0,-3.0699 -2.48951,-5.55942 -5.55946,-5.55942 z"
         style="fill:#4d4d4d;fill-opacity:1;fill-rule:evenodd;stroke:none" />
      <text
         sodipodi:linespacing="125%"
         id="text4165"
         y="958.82648"
         x="-67.857147"
         style="font-size:40px;font-style:normal;font-weight:normal;line-height:125%;letter-spacing:0px;word-spacing:0px;fill:#4d4d4d;fill-opacity:1;stroke:none;font-family:Sans"
         xml:space="preserve"><tspan
           style="font-size:11px;font-style:normal;font-variant:normal;font-weight:bold;font-stretch:normal;fill:#4d4d4d;fill-opacity:1;font-family:Noto Sans;-inkscape-font-specification:Noto Sans Bold"
           y="958.82648"
           x="-67.857147"
           id="tspan4167"
           sodipodi:role="line">DavSoft</tspan></text>
    </g>
    <text
       sodipodi:linespacing="125%"
       id="text3769-3"
       y="881.98529"
       x="-300.8822"
       style="font-size:40px;font-style:normal;font-weight:normal;line-height:125%;letter-spacing:0px;word-spacing:0px;fill:#000000;fill-opacity:0.67058824;stroke:none;font-family:Sans"
       xml:space="preserve"
       inkscape:export-filename="/home/david/Dropbox/Projects/Java/MessageGeneratorFX/files/mg_logo.png"
       inkscape:export-xdpi="90"
       inkscape:export-ydpi="90"><tspan
         style="font-size:72px;font-style:normal;font-variant:normal;font-weight:bold;font-stretch:normal;fill:#000000;fill-opacity:0.67058824;font-family:Symbol;-inkscape-font-specification:Symbol Bold"
         y="881.98529"
         x="-300.8822"
         id="tspan3771-8"
         sodipodi:role="line">Mg</tspan></text>
    <path
       style="font-size:40px;font-style:normal;font-weight:normal;line-height:125%;letter-spacing:0px;word-spacing:0px;opacity:0.80464286;fill:#000000;fill-opacity:0.67010307;stroke:#000000;stroke-opacity:1;filter:url(#filter3844-1);font-family:Sans"
       d="m -297.99701,815.97767 0,94.4375 120.25446,0 0,-94.4375 z m 3.74107,15.84375 17.21875,0 11.9375,28.09375 12.03125,-28.09375 17.1875,0 0,52.46875 -12.78125,0 0,-38.375 -12.09375,28.3125 -8.59375,0 -12.09375,-28.3125 0,38.375 -12.8125,0 z m 84.96875,12.21875 c 2.74216,4e-5 5.16404,0.54691 7.25,1.625 2.08591,1.07816 3.98434,2.77347 5.71875,5.09375 l 0,-5.84375 12.65625,0 0,35.40625 c -5e-5,6.32812 -1.99223,11.17187 -6,14.5 -3.98441,3.35155 -9.78128,5.03123 -17.375,5.03125 -2.46096,-2e-5 -4.85939,-0.18752 -7.15625,-0.5625 -2.29689,-0.37501 -4.58595,-0.94533 -6.90625,-1.71875 l 0,-9.8125 c 2.20311,1.26562 4.35936,2.20312 6.46875,2.8125 2.10936,0.63281 4.21092,0.93749 6.34375,0.9375 4.12497,-10e-6 7.17185,-0.91407 9.09375,-2.71875 1.92184,-1.80469 2.87497,-4.625 2.875,-8.46875 l 0,-2.6875 c -1.73441,2.29688 -3.63284,3.98438 -5.71875,5.0625 -2.08596,1.07813 -4.50784,1.59375 -7.25,1.59375 -4.8047,0 -8.79689,-1.88281 -11.9375,-5.65625 -3.14063,-3.79687 -4.6875,-8.60936 -4.6875,-14.46875 0,-5.88279 1.54687,-10.71872 4.6875,-14.46875 3.14061,-3.7734 7.1328,-5.65621 11.9375,-5.65625 z m 4.65625,9.09375 c -2.60158,3e-5 -4.60939,0.95316 -6.0625,2.875 -1.45314,1.9219 -2.18752,4.64065 -2.1875,8.15625 -2e-5,3.60939 0.71873,6.34376 2.125,8.21875 1.40623,1.85157 3.42967,2.78126 6.125,2.78125 2.62497,10e-6 4.67185,-0.95311 6.125,-2.875 1.45309,-1.92186 2.18747,-4.6328 2.1875,-8.125 -3e-5,-3.5156 -0.73441,-6.23435 -2.1875,-8.15625 -1.45315,-1.92184 -3.50003,-2.87497 -6.125,-2.875 z"
       id="text3782-2"
       inkscape:export-filename="/home/david/Dropbox/Projects/Java/MessageGeneratorFX/files/mg_logo.png"
       inkscape:export-xdpi="90"
       inkscape:export-ydpi="90"
       inkscape:connector-curvature="0"
       sodipodi:nodetypes="ccccccccccccccccccccccccsccccccscscsscscccsccssccc" />
    <path
       style="fill:#50aa00;fill-opacity:1;fill-rule:evenodd"
       d="m -304.06844,796.94642 0,133.46878 133.46875,0 0,-133.46878 -133.46875,0 z m 9.75,32.5 17.21875,0 11.96875,28.09375 12,-28.09375 17.21875,0 0,52.5 -12.8125,0 0,-38.40625 -12.09375,28.3125 -8.5625,0 -12.09375,-28.3125 0,38.40625 -12.84375,0 0,-52.5 z m 84.96875,12.25 c 2.74216,4e-5 5.16404,0.51567 7.25,1.59375 2.08591,1.07816 3.98434,2.80472 5.71875,5.125 l 0,-5.84375 12.65625,0 0,35.40625 c -5e-5,6.32812 -1.99223,11.14062 -6,14.46875 -3.98441,3.35155 -9.78128,5.03123 -17.375,5.03125 -2.46096,-2e-5 -4.82814,-0.18751 -7.125,-0.5625 -2.29689,-0.37501 -4.6172,-0.94533 -6.9375,-1.71875 l 0,-9.8125 c 2.20311,1.26562 4.35936,2.20312 6.46875,2.8125 2.10936,0.63281 4.24217,0.93749 6.375,0.9375 4.12497,-10e-6 7.1406,-0.88282 9.0625,-2.6875 1.92184,-1.80469 2.87497,-4.625 2.875,-8.46875 l 0,-2.71875 c -1.73441,2.29688 -3.63284,3.98438 -5.71875,5.0625 -2.08596,1.07813 -4.50784,1.625 -7.25,1.625 -4.8047,0 -8.76564,-1.88281 -11.90625,-5.65625 -3.14063,-3.79687 -4.71876,-8.64061 -4.71875,-14.5 -1e-5,-5.88279 1.57812,-10.68747 4.71875,-14.4375 3.14061,-3.7734 7.10155,-5.65621 11.90625,-5.65625 z m 4.6875,9.0625 c -2.60158,3e-5 -4.64064,0.95316 -6.09375,2.875 -1.45314,1.9219 -2.18752,4.64065 -2.1875,8.15625 -2e-5,3.60939 0.71873,6.34376 2.125,8.21875 1.40623,1.85157 3.46092,2.78126 6.15625,2.78125 2.62497,10e-6 4.6406,-0.95311 6.09375,-2.875 1.45309,-1.92186 2.18747,-4.6328 2.1875,-8.125 -3e-5,-3.5156 -0.73441,-6.23435 -2.1875,-8.15625 -1.45315,-1.92184 -3.46878,-2.87497 -6.09375,-2.875 z"
       id="rect2995-3"
       inkscape:export-filename="/home/david/Dropbox/Projects/Java/MessageGeneratorFX/files/mg_logo.png"
       inkscape:export-xdpi="90"
       inkscape:export-ydpi="90"
       inkscape:connector-curvature="0" />
    <path
       inkscape:connector-curvature="0"
       id="path3845"
       d="m -273.61266,727.95797 c -10.86361,0 -21.07983,9.4547 -21.07983,17.32909 l 1.81899,0.4714 c 7.17315,-15.36657 26.67133,-15.20725 32.0809,-6.85579 6.48405,10.01029 2.44681,17.69909 -5.86177,21.18239 -7.29099,3.0566 -14.80995,-2.7951 -9.43315,-9.3409 l -3.28956,-1.3784 c -8.80777,8.4956 -4.16493,15.2386 2.95138,15.2386 12.26902,0 22.13023,-8.632 22.13023,-18.9074 0,-10.2753 -8.45359,-17.73899 -19.31719,-17.73899 z m -1.3476,10.65776 c -3.06994,0 -5.55945,2.48952 -5.55945,5.55942 0,3.07001 2.48951,5.55951 5.55945,5.55951 3.06995,0 5.55946,-2.4895 5.55946,-5.55951 0,-3.0699 -2.48951,-5.55942 -5.55946,-5.55942 z"
       style="fill:#4d4d4d;fill-opacity:1;fill-rule:evenodd;stroke:none" />
    <text
       sodipodi:linespacing="125%"
       id="text3847"
       y="774.94177"
       x="-295.97937"
       style="font-size:40px;font-style:normal;font-weight:normal;line-height:125%;letter-spacing:0px;word-spacing:0px;fill:#4d4d4d;fill-opacity:1;stroke:none;font-family:Sans"
       xml:space="preserve"><tspan
         style="font-size:11px;font-style:normal;font-variant:normal;font-weight:bold;font-stretch:normal;fill:#4d4d4d;fill-opacity:1;font-family:Noto Sans;-inkscape-font-specification:Noto Sans Bold"
         y="774.94177"
         x="-295.97937"
         id="tspan3849"
         sodipodi:role="line">DavSoft</tspan></text>
    <text
       xml:space="preserve"
       style="font-size:40px;font-style:normal;font-weight:normal;line-height:125%;letter-spacing:0px;word-spacing:0px;fill:#323232;fill-opacity:1;stroke:none;font-family:Sans"
       x="-374.78683"
       y="702.56512"
       id="text3016"
       sodipodi:linespacing="125%"
       inkscape:export-filename="/home/david/Dropbox/Projects/Java/MessageGeneratorFX/files/splash_screen_new.png"
       inkscape:export-xdpi="90"
       inkscape:export-ydpi="90"><tspan
         sodipodi:role="line"
         id="tspan3018"
         x="-374.78683"
         y="702.56512"
         style="font-size:32px;font-style:italic;font-variant:normal;font-weight:bold;font-stretch:normal;fill:#323232;fill-opacity:1;font-family:URW Chancery L;-inkscape-font-specification:URW Chancery L Bold Italic"><tspan
   style="font-style:normal;font-variant:normal;font-weight:bold;font-stretch:normal;font-family:URW Palladio L;-inkscape-font-specification:URW Palladio L Bold"
   id="tspan3806">Message Generator </tspan>Fx </tspan></text>
    <g
       id="g3842">
      <path
         sodipodi:nodetypes="cccccsccccccssscscccsccscsssccccccccscccsscccscccsccccccscccscccsscccccsccccsscccssccccsccccccccccccsccscccccssccsccccsscsccscccssccssccccssccssccccssccsssccccssccssccccssccsssscscccccsccccssccscccccsscscccssscsscssssccscccsssscsccscccssccssscsccscccssccsccccscsscccscsssscccccccssccccsscsccscccssccsccccscccssscccccccsscccccsscscccccsccccssccscccccssssssccccscccssscccccccsscccccsssssssssssccsccssccsccssccsccssccsccssccccsccsccsccsccccccccccsccsccssccccssccscssss"
         inkscape:connector-curvature="0"
         id="rect3045"
         d="m 10,647.86218 0,42.96875 585,0 0,-42.96875 z m 382.90625,7.4375 c 3.136,0 5.43175,0.412 8.34375,1.5 l 0.21875,0.375 c -0.288,1.216 -0.398,1.803 -0.75,4.875 l -1.25,0 -0.15625,-2.75 c -0.768,-0.736 -1.04375,-0.96125 -1.84375,-1.28125 -1.376,-0.608 -3.08675,-0.90625 -4.71875,-0.90625 -5.21599,0 -8.28125,3.33676 -8.28125,8.96875 0,6.07999 3.44176,10.21875 8.59375,10.21875 1.376,0 2.4305,-0.17325 4.0625,-0.78125 l 0,-4.25 c 0,-0.832 -0.4685,-1.1235 -1.8125,-1.1875 l -1.6875,-0.0625 0,-1.3125 c 2.592,0.064 3.8265,0.0937 4.5625,0.0937 0.832,0 0.8445,0.002 4.8125,-0.0937 l 0,1.09375 c -1.184,0.256 -1.3125,0.38825 -1.3125,1.15625 l 0,5.21875 c -3.84,1.44 -6.268,1.90625 -9.5,1.90625 -7.58399,0 -12.53125,-4.55376 -12.53125,-11.59375 0,-6.91199 5.05801,-11.1875 13.25,-11.1875 z M 245,655.76843 c 1.12,0.032 1.145,0.0312 1.625,0.0312 0.96,0.032 1.70675,0.0625 2.21875,0.0625 l 3.84375,-0.0937 2.375,5.15625 5.0625,10.53125 5.875,-12.09375 c 0.352,-0.736 0.6345,-1.38575 1.5625,-3.59375 3.328,0.096 3.3355,0.0937 3.6875,0.0937 0.352,0 0.3275,0.002 3.6875,-0.0937 l 0,1.1875 -1.1875,0.0937 c -1.44,0.128 -1.53125,0.309 -1.53125,3.125 l 0,13.0625 c 0,2.848 0.0272,2.90325 1.53125,3.03125 l 1.1875,0.0937 0,1.28125 c -3.872,-0.096 -3.88075,-0.0937 -4.96875,-0.0937 -1.088,0 -1.09675,-0.002 -4.96875,0.0937 l 0,-1.28115 1.1875,-0.0937 c 1.504,-0.128 1.53125,-0.18325 1.53125,-3.03125 l 0,-13.3125 -6.59375,13.71875 c -1.184,2.432 -1.29825,2.74675 -1.90625,4.21875 l -1.09375,0 c -0.576,-1.408 -0.93225,-2.17625 -1.15625,-2.65625 l -7.375,-15.3125 0,13.34375 c 0,2.848 0.0913,2.997 1.53125,3.125 l 1.1875,0.0937 0,1.1875 c -1.536,-0.064 -2.985,-0.0937 -3.625,-0.0937 -0.608,0 -0.6155,-0.002 -3.6875,0.0937 l 0,-1.1875 1.1875,-0.0937 c 1.44,-0.128 1.53125,-0.309 1.53125,-3.125 l 0,-13.0625 c 0,-2.816 -0.0913,-2.997 -1.53125,-3.125 L 245,656.95593 z m 246.4375,1.5625 0.4375,0.3125 c -0.288,1.6 -0.375,2.64775 -0.375,4.34375 l 0,1.875 3.65625,-0.1875 -0.25,2.0625 -3.40625,0 0,7.625 c 0,1.568 0.496,2.0625 2,2.0625 0.512,0 0.82875,-0.0863 1.46875,-0.40625 l 0.25,0.625 -1.5625,1.875 c -0.288,0.352 -1.10175,0.5625 -2.09375,0.5625 -2.784,0 -3.96875,-1.2145 -3.96875,-4.0625 l 0,-8.28125 -2.03125,0.125 0,-0.6875 2.09375,-1.375 0,-1.9375 c 0,-0.672 -0.029,-1.2735 -0.125,-2.9375 1.632,-0.608 2.62625,-0.98575 3.90625,-1.59375 z m 65.8125,0.375 c -0.128,0.448 -0.18375,0.52225 -0.34375,0.90625 -0.672,0.416 -1.584,1.11675 -2,1.46875 l -5.125,-0.125 -2.03125,8.21875 5.03125,0 c -0.8,0.8 -1.0415,0.96575 -1.9375,1.09375 -0.096,0.032 -1.6135,0.12275 -3.4375,0.21875 l -0.75,3.0625 c -0.768,3.04 -1.6015,4.4245 -3.9375,6.3125 -2.112,1.728 -3.48625,2.34375 -5.40625,2.34375 -0.352,0 -0.92175,-0.0298 -1.59375,-0.0937 l 1.21875,-2.09375 c 1.184,0.032 1.74025,0.0625 2.15625,0.0625 3.04,0 3.81375,-0.88001 5.09375,-6 l 0.875,-3.4375 -0.8125,0 1.15625,-1.46875 2.03125,-8.21875 c -0.608,-0.064 -1.14725,-0.0937 -1.53125,-0.0937 -2.976,0 -4.84375,1.77625 -4.84375,4.65625 0,0.96 0.113,1.6835 0.625,3.1875 L 539,668.92468 c -0.32,-1.152 -0.40625,-1.70075 -0.40625,-2.46875 0,-2.336 1.083,-4.59425 2.875,-5.90625 1.76,-1.248 3.76275,-1.75 7.21875,-1.75 l 4.3125,0.0312 c 1.792,0 2.906,-0.293 4.25,-1.125 z m -272.5625,4.78125 c 3.648,0 6.03125,2.201 6.03125,5.625 l 0,1.65625 c -1.792,0.448 -3.2385,0.65625 -5.0625,0.65625 l -4.1875,0 c 0.064,1.504 0.26925,2.229 0.78125,3.125 0.8,1.376 2.36725,2.28125 4.03125,2.28125 1.28,0 2.246,-0.293 3.75,-1.125 l 0.375,0.46875 -0.71875,1.53125 c -2.048,1.056 -3.20725,1.375 -5.03125,1.375 -4.768,0 -7.34375,-2.66201 -7.34375,-7.75 0,-3.04 0.91925,-4.97075 3.03125,-6.21875 l 1.53125,-0.90625 c 0.864,-0.512 1.6925,-0.71875 2.8125,-0.71875 z m 15.1875,0 c 1.696,0 2.6895,0.17475 3.9375,0.71875 l -0.25,3.90625 -1.15625,0 -0.3125,-1.84375 c -0.096,-0.64 -1.50125,-1.25 -2.78125,-1.25 -1.728,0 -2.8125,0.7825 -2.8125,2.0625 0,0.992 0.502,1.5245 1.75,1.8125 l 2.625,0.5625 c 2.88,0.64 4.0625,1.821 4.0625,4.125 0,3.296 -2.718,5.5 -6.75,5.5 -1.696,0 -3.14475,-0.235 -4.96875,-0.875 l 0.21875,-4.53125 1.25,0 0.15625,2.21875 c 1.024,1.184 2.08975,1.65625 3.59375,1.65625 1.792,0 2.9375,-0.96475 2.9375,-2.46875 0,-1.12 -0.528,-1.648 -2,-2 l -2.75,-0.6875 c -2.24,-0.544 -3.40625,-1.888 -3.40625,-4 0,-3.2 2.33625,-4.90625 6.65625,-4.90625 z m 14.1875,0 c 1.696,0 2.6895,0.17475 3.9375,0.71875 l -0.25,3.90625 -1.15625,0 -0.3125,-1.84375 c -0.096,-0.64 -1.50125,-1.25 -2.78125,-1.25 -1.728,0 -2.8125,0.7825 -2.8125,2.0625 0,0.992 0.502,1.5245 1.75,1.8125 l 2.625,0.5625 c 2.88,0.64 4.0625,1.821 4.0625,4.125 0,3.296 -2.718,5.5 -6.75,5.5 -1.696,0 -3.14475,-0.235 -4.96875,-0.875 l 0.21875,-4.53125 1.25,0 0.15625,2.21875 c 1.024,1.184 2.08975,1.65625 3.59375,1.65625 1.792,0 2.9375,-0.96475 2.9375,-2.46875 0,-1.12 -0.528,-1.648 -2,-2 l -2.75,-0.6875 c -2.24,-0.544 -3.40625,-1.888 -3.40625,-4 0,-3.2 2.33625,-4.90625 6.65625,-4.90625 z m 14.59375,0 c 3.232,0 5.15625,1.68325 5.15625,4.53125 0,0.224 7.5e-4,0.5215 -0.0312,0.9375 -0.032,1.216 -0.0625,2.22975 -0.0625,3.09375 0,0.768 0.0305,1.6635 0.0625,2.6875 l 0,0.6875 c 0.032,1.504 0.20225,1.8095 0.90625,1.9375 l 0.96875,0.0937 0,1.1875 c -1.92,-0.064 -2.45975,-0.0937 -2.84375,-0.0937 -0.384,0 -0.92225,0.0298 -2.90625,0.0937 l -0.15625,-0.25 0.15625,-2 -2.96875,2.3125 c -0.32,0.256 -0.8585,0.375 -1.5625,0.375 -2.432,0 -3.75,-1.37675 -3.75,-3.96875 0,-2.72 1.43675,-3.94925 5.46875,-4.78125 l 2.8125,-0.59375 c -0.096,-2.624 -1.106,-3.75 -3.25,-3.75 -0.864,0 -1.779,0.2135 -1.875,0.4375 l -0.6875,1.59375 -0.96875,-0.21875 0,-2.21875 1.6875,-1 c 1.184,-0.736 2.49975,-1.09375 3.84375,-1.09375 z m 16.125,0 c 2.048,0 3.563,0.415 4.875,1.375 0.512,0.032 0.90025,0.0312 1.15625,0.0312 0.704,0 1.313,-0.0283 2.625,-0.15625 l -0.15625,2.03125 -2.46875,-0.125 c 0.128,0.608 0.15625,0.988 0.15625,1.5 0,1.6 -0.41425,2.72675 -1.40625,3.71875 -1.312,1.312 -3.3545,2.0625 -5.5625,2.0625 -0.384,0 -0.70525,-0.0305 -1.28125,-0.0625 -0.64,0.384 -0.9375,0.73875 -0.9375,1.21875 0,0.64 0.508,0.96875 1.5,0.96875 0.352,0 1.5195,-0.029 4.6875,-0.125 l 0.75,0 c 3.232,0 4.75,1.28075 4.75,3.96875 0,4.256 -3.77501,7.15625 -9.375,7.15625 -4.224,0 -6.90625,-1.74725 -6.90625,-4.53125 0,-0.864 0.3325,-1.68075 0.8125,-1.96875 l 2.59375,-1.5625 c -1.6,-0.416 -2.15625,-0.973 -2.15625,-2.125 0,-0.64 0.21125,-1.30725 0.53125,-1.53125 l 2.28125,-1.75 c -1.12,-0.384 -1.61075,-0.6725 -2.21875,-1.3125 -0.768,-0.832 -1.1875,-1.8785 -1.1875,-3.0625 0,-3.36 2.8415,-5.71875 6.9375,-5.71875 z m 18.09375,0 c 3.648,0 6.03125,2.201 6.03125,5.625 l 0,1.65625 c -1.792,0.448 -3.2385,0.65625 -5.0625,0.65625 l -4.1875,0 c 0.064,1.504 0.26925,2.229 0.78125,3.125 0.8,1.376 2.36725,2.28125 4.03125,2.28125 1.28,0 2.246,-0.293 3.75,-1.125 l 0.375,0.46875 -0.71875,1.53125 c -2.048,1.056 -3.20725,1.375 -5.03125,1.375 -4.768,0 -7.34375,-2.66201 -7.34375,-7.75 0,-3.04 0.91925,-4.97075 3.03125,-6.21875 l 1.53125,-0.90625 c 0.864,-0.512 1.6925,-0.71875 2.8125,-0.71875 z m 50.6875,0 c 3.648,0 6.03125,2.201 6.03125,5.625 l 0,1.65625 c -1.792,0.448 -3.2385,0.65625 -5.0625,0.65625 l -4.1875,0 c 0.064,1.504 0.26925,2.229 0.78125,3.125 0.8,1.376 2.36725,2.28125 4.03125,2.28125 1.28,0 2.246,-0.293 3.75,-1.125 l 0.375,0.46875 -0.71875,1.53125 c -2.048,1.056 -3.20725,1.375 -5.03125,1.375 -4.768,0 -7.34375,-2.66201 -7.34375,-7.75 0,-3.04 0.91925,-4.97075 3.03125,-6.21875 l 1.53125,-0.90625 c 0.864,-0.512 1.6925,-0.71875 2.8125,-0.71875 z m 14.03125,0 0.1875,0.1875 0,2.40625 2.5625,-2 c 0.512,-0.416 1.29,-0.59375 2.25,-0.59375 1.568,0 2.88675,0.47975 3.71875,1.34375 0.832,0.896 1.125,2.0985 1.125,4.5625 l 0,5.96875 c 0,1.728 0.133,1.96725 1.125,2.03125 l 1.0625,0.0625 0,1.1875 c -2.784,-0.096 -2.77075,-0.0937 -3.21875,-0.0937 -0.512,0 -1.051,0.0298 -2.875,0.0937 l 0,-8.71875 c 0,-2.56 -0.91925,-3.6875 -3.03125,-3.6875 -1.408,0 -2.71875,1.03625 -2.71875,2.15625 l 0,6.96875 c 0,1.728 0.16425,1.96725 1.15625,2.03125 l 1.125,-1.9375 0,3.1875 c -2.144,-0.064 -3.6725,-0.0937 -4.3125,-0.0937 l -4.125,0.0937 0,-3.1875 1.125,1.9375 c 0.992,-0.064 1.125,-0.30325 1.125,-2.03125 l 0,-7.03125 c 0,-1.888 -0.0765,-2.15475 -0.8125,-2.21875 l -1.4375,-0.0937 0,-1.15625 c 1.76,-0.096 2.64075,-0.287 5.96875,-1.375 z m 21.53125,0 c 3.648,0 6.03125,2.201 6.03125,5.625 l 0,1.65625 c -1.792,0.448 -3.2385,0.65625 -5.0625,0.65625 l -4.1875,0 c 0.064,1.504 0.26925,2.229 0.78125,3.125 0.8,1.376 2.36725,2.28125 4.03125,2.28125 1.28,0 2.246,-0.293 3.75,-1.125 l 0.375,0.46875 -0.71875,1.53125 c -2.048,1.056 -3.20725,1.375 -5.03125,1.375 -4.768,0 -7.34375,-2.66201 -7.34375,-7.75 0,-3.04 0.91925,-4.97075 3.03125,-6.21875 l 1.53125,-0.90625 c 0.864,-0.512 1.6925,-0.71875 2.8125,-0.71875 z m 14.09375,0 0.3125,0.1875 0,3.03125 1.4375,-1.53125 c 1.216,-1.312 1.82275,-1.6875 2.71875,-1.6875 0.448,0 0.83625,0.0595 1.15625,0.1875 l -0.15625,4.125 -0.75,0.3125 c -0.448,-0.768 -1.04375,-1.15625 -1.84375,-1.15625 -1.248,0 -2.5625,1.0705 -2.5625,2.0625 l 0,6.34375 c 0,1.792 0.1865,1.96725 1.5625,2.03125 l 1.25,0.0625 0,1.1875 c -4.32,-0.096 -4.42775,-0.0937 -4.84375,-0.0937 l -4.125,0.0937 0,-1.1875 1.125,-0.0625 c 0.992,-0.064 1.15625,-0.30325 1.15625,-2.03125 l 0,-7.03125 c 0,-1.888 -0.10775,-2.15475 -0.84375,-2.21875 l -1.4375,-0.0937 0,-1.15625 c 2.016,-0.256 2.601,-0.3675 3.625,-0.6875 z m 13.9375,0 c 3.232,0 5.15625,1.68325 5.15625,4.53125 0,0.224 7.5e-4,0.5215 -0.0312,0.9375 -0.032,1.216 -0.0625,2.22975 -0.0625,3.09375 0,0.768 0.0305,1.6635 0.0625,2.6875 l 0,0.6875 c 0.032,1.504 0.20225,1.8095 0.90625,1.9375 l 0.96875,0.0937 0,1.1875 c -1.92,-0.064 -2.45975,-0.0937 -2.84375,-0.0937 -0.384,0 -0.92225,0.0298 -2.90625,0.0937 l -0.15625,-0.25 0.15625,-2 -2.96875,2.3125 c -0.32,0.256 -0.8585,0.375 -1.5625,0.375 -2.432,0 -3.75,-1.37675 -3.75,-3.96875 0,-2.72 1.43675,-3.94925 5.46875,-4.78125 l 2.8125,-0.59375 c -0.096,-2.624 -1.106,-3.75 -3.25,-3.75 -0.864,0 -1.779,0.2135 -1.875,0.4375 l -0.6875,1.59375 -0.96875,-0.21875 0,-2.21875 1.6875,-1 c 1.184,-0.736 2.49975,-1.09375 3.84375,-1.09375 z m 27.5625,0 c 4.736,0 7.375,2.636 7.375,7.5 0,5.18399 -2.88001,8.09375 -8,8.09375 -4.64,0 -7.28125,-2.7595 -7.28125,-7.6875 0,-5.08799 2.81826,-7.90625 7.90625,-7.90625 z m 15.4375,0 0.3125,0.1875 0,3.03125 1.4375,-1.53125 c 1.216,-1.312 1.82275,-1.6875 2.71875,-1.6875 0.448,0 0.83625,0.0595 1.15625,0.1875 l -0.15625,4.125 -0.75,0.3125 c -0.448,-0.768 -1.04375,-1.15625 -1.84375,-1.15625 -1.248,0 -2.5625,1.0705 -2.5625,2.0625 l 0,6.34375 c 0,1.792 0.1865,1.96725 1.5625,2.03125 l 1.25,0.0625 0,1.1875 c -4.32,-0.096 -4.42775,-0.0937 -4.84375,-0.0937 l -4.125,0.0937 0,-1.1875 1.125,-0.0625 c 0.992,-0.064 1.15625,-0.30325 1.15625,-2.03125 l 0,-7.03125 c 0,-1.888 -0.10775,-2.15475 -0.84375,-2.21875 l -1.4375,-0.0937 0,-1.15625 c 2.016,-0.256 2.601,-0.3675 3.625,-0.6875 z m -15.8125,1.53125 c -2.208,0 -3.1875,1.72175 -3.1875,5.59375 0,4.608 1.196,6.9375 3.5,6.9375 2.176,0 3.0625,-1.6585 3.0625,-5.5625 0,-4.704 -1.071,-6.96875 -3.375,-6.96875 z m -159.9375,0.0625 c -1.728,0 -2.625,1.22725 -2.625,3.53125 0,2.4 1.0235,3.8125 2.6875,3.8125 1.696,0 2.5625,-1.1655 2.5625,-3.4375 0,-2.528 -0.929,-3.90625 -2.625,-3.90625 z M 284,664.26843 c -1.856,0 -2.62275,1.2695 -2.71875,4.4375 l 1.03125,0.0312 c 0.48,0.032 1.33925,0.0625 1.53125,0.0625 l 0.125,0 2.6875,-0.0937 c -0.064,-3.168 -0.83225,-4.4375 -2.65625,-4.4375 z m 78.1875,0 c -1.856,0 -2.62275,1.2695 -2.71875,4.4375 l 1.03125,0.0312 c 0.48,0.032 1.33925,0.0625 1.53125,0.0625 l 0.125,0 2.6875,-0.0937 c -0.064,-3.168 -0.83225,-4.4375 -2.65625,-4.4375 z m 50.6875,0 c -1.856,0 -2.62275,1.2695 -2.71875,4.4375 l 1.03125,0.0312 c 0.48,0.032 1.33925,0.0625 1.53125,0.0625 l 0.125,0 2.6875,-0.0937 c -0.064,-3.168 -0.83225,-4.4375 -2.65625,-4.4375 z m 35.5625,0 c -1.856,0 -2.62275,1.2695 -2.71875,4.4375 l 1.03125,0.0312 c 0.48,0.032 1.33925,0.0625 1.53125,0.0625 l 0.125,0 2.6875,-0.0937 c -0.064,-3.168 -0.83225,-4.4375 -2.65625,-4.4375 z M 560,664.39343 c 1.024,0 1.462,0.5005 1.75,1.8125 0.096,0.448 0.27825,1.6285 0.40625,2.8125 l 2.25,-2.15625 c 1.216,-1.184 1.38525,-1.35625 2.28125,-2.15625 0.544,-0.256 0.83475,-0.3125 1.21875,-0.3125 0.416,0 0.645,0.0863 1.125,0.40625 l -0.71875,2.25 c -0.672,-0.288 -0.99175,-0.34375 -1.34375,-0.34375 -0.864,0 -1.937,0.754 -4.625,3.25 0.704,5.02399 0.96125,6.65825 1.28125,7.90625 0.672,2.656 1.714,3.9375 3.25,3.9375 1.152,0 2.011,-0.62025 2.875,-2.15625 l 1.25,1.5 c -1.056,1.088 -2.17675,1.53125 -3.96875,1.53125 -2.656,0 -4.7335,-1.356 -5.4375,-3.5 -0.48,-1.472 -0.64725,-2.665 -1.03125,-7.625 -2.336,1.888 -3.703,3.9965 -4.375,6.8125 -0.096,0.032 -0.186,0.0625 -0.25,0.0625 0,0 -0.061,7.5e-4 -0.125,-0.0312 -0.032,0 -0.0923,7.5e-4 -0.15625,-0.0312 l -1.0625,-1.6875 c 0.544,-1.472 0.76775,-1.92325 1.34375,-2.53125 0.608,-0.576 0.6245,-0.54575 3.3125,-2.59375 l 1.1875,-0.96875 c -0.48,-3.36 -0.85025,-4.1875 -1.90625,-4.1875 -0.64,0 -0.79875,0.0637 -2.71875,1.34375 l 0.0625,-0.875 c 2.208,-1.92 3.133,-2.46875 4.125,-2.46875 z m -230.09375,5.6875 -1.4375,0.40625 c -2.272,0.608 -2.9375,1.2445 -2.9375,2.8125 0,1.248 0.601,2 1.625,2 0.96,0 2.142,-0.6055 2.75,-1.4375 z m 148.5,0 -1.4375,0.40625 c -2.272,0.608 -2.9375,1.2445 -2.9375,2.8125 0,1.248 0.601,2 1.625,2 0.96,0 2.142,-0.6055 2.75,-1.4375 z m -133.34375,7.9375 c -1.568,0 -2.738,0.151 -3.25,0.375 -0.96,0.48 -1.625,1.566 -1.625,2.75 0,1.984 1.902,3.3125 4.75,3.3125 2.848,0 4.96875,-1.667 4.96875,-3.875 0,-2.048 -0.93975,-2.5625 -4.84375,-2.5625 z"
         style="opacity:0.25;fill:#4d4d4d;fill-opacity:1;fill-rule:evenodd;stroke:none" />
      <text
         inkscape:export-ydpi="90"
         inkscape:export-xdpi="90"
         inkscape:export-filename="/home/david/Dropbox/Projects/Java/MessageGeneratorFX/files/splash_screen_new.png"
         sodipodi:linespacing="125%"
         id="text3016-6"
         y="677.53522"
         x="243.9725"
         style="font-size:40px;font-style:normal;font-weight:normal;line-height:125%;letter-spacing:0px;word-spacing:0px;opacity:0.4;fill:#ffffff;fill-opacity:1;stroke:none;font-family:Sans"
         xml:space="preserve"><tspan
           style="font-size:32px;font-style:italic;font-variant:normal;font-weight:bold;font-stretch:normal;fill:#ffffff;fill-opacity:1;font-family:URW Chancery L;-inkscape-font-specification:URW Chancery L Bold Italic"
           y="677.53522"
           x="243.9725"
           id="tspan3018-2"
           sodipodi:role="line"><tspan
   id="tspan3806-8"
   style="font-style:normal;font-variant:normal;font-weight:bold;font-stretch:normal;fill:#ffffff;fill-opacity:1;font-family:URW Palladio L;-inkscape-font-specification:URW Palladio L Bold">Message Generator </tspan>Fx </tspan></text>
    </g>
    <text
       xml:space="preserve"
       style="font-size:40px;font-style:normal;font-weight:normal;line-height:125%;letter-spacing:0px;word-spacing:0px;fill:#323232;fill-opacity:1;stroke:none;font-family:Sans"
       x="22.639763"
       y="893.45844"
       id="text3016-3"
       sodipodi:linespacing="125%"
       inkscape:export-filename="/home/david/Dropbox/Projects/Java/MessageGeneratorFX/files/splash_screen_new.png"
       inkscape:export-xdpi="90"
       inkscape:export-ydpi="90"><tspan
         sodipodi:role="line"
         id="tspan3018-7"
         x="22.639763"
         y="893.45844"
         style="font-size:20px;font-style:normal;font-variant:normal;font-weight:normal;font-stretch:normal;fill:#323232;fill-opacity:1;font-family:URW Palladio L;-inkscape-font-specification:URW Palladio L Medium">Message Generator FX</tspan></text>
  </g>
</svg>
